<<<<<<< Updated upstream
<mxfile host="app.diagrams.net" modified="2023-10-22T16:30:20.299Z" agent="Mozilla/5.0 (Windows NT 10.0; Win64; x64) AppleWebKit/537.36 (KHTML, like Gecko) Chrome/118.0.0.0 Safari/537.36 Edg/118.0.2088.57" etag="JpqB7LDo2ZFKUBG4Rbkf" version="22.0.6" type="device">
  <diagram name="Page-1" id="0f3puHsDz9BGCvBF55mq">
    <mxGraphModel dx="2084" dy="1150" grid="1" gridSize="10" guides="1" tooltips="1" connect="1" arrows="1" fold="1" page="1" pageScale="1" pageWidth="850" pageHeight="1100" math="0" shadow="0">
      <root>
        <mxCell id="0" />
        <mxCell id="1" parent="0" />
        <mxCell id="YLoG_cEiAJx4C-f8SDsn-3" style="edgeStyle=none;rounded=0;orthogonalLoop=1;jettySize=auto;html=1;exitX=0.25;exitY=0;exitDx=0;exitDy=0;entryX=0.5;entryY=1;entryDx=0;entryDy=0;" edge="1" parent="1" source="YLoG_cEiAJx4C-f8SDsn-1" target="YLoG_cEiAJx4C-f8SDsn-2">
          <mxGeometry relative="1" as="geometry" />
        </mxCell>
        <mxCell id="YLoG_cEiAJx4C-f8SDsn-11" style="edgeStyle=none;rounded=0;orthogonalLoop=1;jettySize=auto;html=1;exitX=0.5;exitY=0;exitDx=0;exitDy=0;entryX=0.5;entryY=1;entryDx=0;entryDy=0;" edge="1" parent="1" source="YLoG_cEiAJx4C-f8SDsn-1" target="YLoG_cEiAJx4C-f8SDsn-5">
=======
<mxfile host="app.diagrams.net" modified="2023-11-04T02:44:11.137Z" agent="Mozilla/5.0 (Windows NT 10.0; Win64; x64) AppleWebKit/537.36 (KHTML, like Gecko) Chrome/118.0.0.0 Safari/537.36 Edg/118.0.2088.76" etag="WfFXzp85-EMb_FDJdUV4" version="22.0.8" type="device">
  <diagram name="Page-1" id="0f3puHsDz9BGCvBF55mq">
    <mxGraphModel dx="1172" dy="713" grid="1" gridSize="10" guides="1" tooltips="1" connect="1" arrows="1" fold="1" page="1" pageScale="1" pageWidth="850" pageHeight="1100" math="0" shadow="0">
      <root>
        <mxCell id="0" />
        <mxCell id="1" parent="0" />
        <mxCell id="YLoG_cEiAJx4C-f8SDsn-3" style="edgeStyle=none;rounded=0;orthogonalLoop=1;jettySize=auto;html=1;exitX=0.5;exitY=0;exitDx=0;exitDy=0;entryX=0.5;entryY=1;entryDx=0;entryDy=0;" parent="1" source="YLoG_cEiAJx4C-f8SDsn-1" target="YLoG_cEiAJx4C-f8SDsn-2" edge="1">
          <mxGeometry relative="1" as="geometry" />
        </mxCell>
        <mxCell id="YLoG_cEiAJx4C-f8SDsn-11" style="edgeStyle=none;rounded=0;orthogonalLoop=1;jettySize=auto;html=1;exitX=0.75;exitY=0;exitDx=0;exitDy=0;entryX=0.5;entryY=1;entryDx=0;entryDy=0;" parent="1" source="YLoG_cEiAJx4C-f8SDsn-1" target="YLoG_cEiAJx4C-f8SDsn-5" edge="1">
>>>>>>> Stashed changes
          <mxGeometry relative="1" as="geometry" />
        </mxCell>
        <mxCell id="YLoG_cEiAJx4C-f8SDsn-12" style="edgeStyle=none;rounded=0;orthogonalLoop=1;jettySize=auto;html=1;exitX=0.75;exitY=0;exitDx=0;exitDy=0;entryX=0.5;entryY=1;entryDx=0;entryDy=0;" edge="1" parent="1" source="YLoG_cEiAJx4C-f8SDsn-1" target="YLoG_cEiAJx4C-f8SDsn-6">
          <mxGeometry relative="1" as="geometry" />
        </mxCell>
<<<<<<< Updated upstream
        <mxCell id="YLoG_cEiAJx4C-f8SDsn-13" style="edgeStyle=none;rounded=0;orthogonalLoop=1;jettySize=auto;html=1;exitX=0;exitY=0.5;exitDx=0;exitDy=0;entryX=1;entryY=0.5;entryDx=0;entryDy=0;" edge="1" parent="1" source="YLoG_cEiAJx4C-f8SDsn-1" target="YLoG_cEiAJx4C-f8SDsn-7">
          <mxGeometry relative="1" as="geometry" />
        </mxCell>
        <mxCell id="YLoG_cEiAJx4C-f8SDsn-14" style="edgeStyle=none;rounded=0;orthogonalLoop=1;jettySize=auto;html=1;exitX=0;exitY=0.75;exitDx=0;exitDy=0;entryX=1;entryY=0;entryDx=0;entryDy=0;" edge="1" parent="1" source="YLoG_cEiAJx4C-f8SDsn-1" target="YLoG_cEiAJx4C-f8SDsn-8">
          <mxGeometry relative="1" as="geometry" />
        </mxCell>
        <mxCell id="YLoG_cEiAJx4C-f8SDsn-15" style="edgeStyle=none;rounded=0;orthogonalLoop=1;jettySize=auto;html=1;entryX=0.5;entryY=0;entryDx=0;entryDy=0;exitX=0.5;exitY=1;exitDx=0;exitDy=0;" edge="1" parent="1" source="YLoG_cEiAJx4C-f8SDsn-1" target="YLoG_cEiAJx4C-f8SDsn-10">
=======
        <mxCell id="YLoG_cEiAJx4C-f8SDsn-13" style="edgeStyle=none;rounded=0;orthogonalLoop=1;jettySize=auto;html=1;exitX=0.25;exitY=0;exitDx=0;exitDy=0;entryX=0.5;entryY=1;entryDx=0;entryDy=0;" parent="1" source="YLoG_cEiAJx4C-f8SDsn-1" target="YLoG_cEiAJx4C-f8SDsn-7" edge="1">
          <mxGeometry relative="1" as="geometry" />
        </mxCell>
        <mxCell id="YLoG_cEiAJx4C-f8SDsn-14" style="edgeStyle=none;rounded=0;orthogonalLoop=1;jettySize=auto;html=1;exitX=0;exitY=0;exitDx=0;exitDy=0;entryX=1;entryY=0.5;entryDx=0;entryDy=0;" parent="1" source="YLoG_cEiAJx4C-f8SDsn-1" target="YLoG_cEiAJx4C-f8SDsn-8" edge="1">
          <mxGeometry relative="1" as="geometry" />
        </mxCell>
        <mxCell id="YLoG_cEiAJx4C-f8SDsn-15" style="edgeStyle=none;rounded=0;orthogonalLoop=1;jettySize=auto;html=1;entryX=1;entryY=0;entryDx=0;entryDy=0;exitX=0;exitY=0.5;exitDx=0;exitDy=0;" parent="1" source="YLoG_cEiAJx4C-f8SDsn-1" target="YLoG_cEiAJx4C-f8SDsn-10" edge="1">
>>>>>>> Stashed changes
          <mxGeometry relative="1" as="geometry">
            <mxPoint x="210" y="180" as="sourcePoint" />
          </mxGeometry>
        </mxCell>
<<<<<<< Updated upstream
        <mxCell id="YLoG_cEiAJx4C-f8SDsn-16" style="edgeStyle=none;rounded=0;orthogonalLoop=1;jettySize=auto;html=1;exitX=0.25;exitY=1;exitDx=0;exitDy=0;entryX=0.5;entryY=0;entryDx=0;entryDy=0;" edge="1" parent="1" source="YLoG_cEiAJx4C-f8SDsn-1" target="YLoG_cEiAJx4C-f8SDsn-9">
          <mxGeometry relative="1" as="geometry" />
        </mxCell>
        <mxCell id="YLoG_cEiAJx4C-f8SDsn-19" style="edgeStyle=none;rounded=0;orthogonalLoop=1;jettySize=auto;html=1;exitX=0.75;exitY=1;exitDx=0;exitDy=0;entryX=0.5;entryY=0;entryDx=0;entryDy=0;" edge="1" parent="1" source="YLoG_cEiAJx4C-f8SDsn-1" target="YLoG_cEiAJx4C-f8SDsn-18">
          <mxGeometry relative="1" as="geometry" />
        </mxCell>
        <mxCell id="YLoG_cEiAJx4C-f8SDsn-22" style="edgeStyle=none;rounded=0;orthogonalLoop=1;jettySize=auto;html=1;exitX=1;exitY=0;exitDx=0;exitDy=0;entryX=0;entryY=1;entryDx=0;entryDy=0;" edge="1" parent="1" source="YLoG_cEiAJx4C-f8SDsn-1" target="YLoG_cEiAJx4C-f8SDsn-21">
=======
        <mxCell id="YLoG_cEiAJx4C-f8SDsn-16" style="edgeStyle=none;rounded=0;orthogonalLoop=1;jettySize=auto;html=1;exitX=0;exitY=0.25;exitDx=0;exitDy=0;entryX=1;entryY=0.5;entryDx=0;entryDy=0;" parent="1" source="YLoG_cEiAJx4C-f8SDsn-1" target="YLoG_cEiAJx4C-f8SDsn-9" edge="1">
          <mxGeometry relative="1" as="geometry" />
        </mxCell>
        <mxCell id="YLoG_cEiAJx4C-f8SDsn-19" style="edgeStyle=none;rounded=0;orthogonalLoop=1;jettySize=auto;html=1;exitX=0;exitY=0.75;exitDx=0;exitDy=0;entryX=0.5;entryY=0;entryDx=0;entryDy=0;" parent="1" source="YLoG_cEiAJx4C-f8SDsn-1" target="YLoG_cEiAJx4C-f8SDsn-18" edge="1">
          <mxGeometry relative="1" as="geometry" />
        </mxCell>
        <mxCell id="YLoG_cEiAJx4C-f8SDsn-22" style="edgeStyle=none;rounded=0;orthogonalLoop=1;jettySize=auto;html=1;exitX=1;exitY=0;exitDx=0;exitDy=0;entryX=0;entryY=0.5;entryDx=0;entryDy=0;" parent="1" source="YLoG_cEiAJx4C-f8SDsn-1" target="YLoG_cEiAJx4C-f8SDsn-21" edge="1">
>>>>>>> Stashed changes
          <mxGeometry relative="1" as="geometry" />
        </mxCell>
        <mxCell id="YLoG_cEiAJx4C-f8SDsn-1" value="Users" style="rounded=0;whiteSpace=wrap;html=1;" vertex="1" parent="1">
          <mxGeometry x="150" y="130" width="100" height="40" as="geometry" />
        </mxCell>
<<<<<<< Updated upstream
        <mxCell id="YLoG_cEiAJx4C-f8SDsn-2" value="&lt;span style=&quot;border-bottom: 1px dotted&quot;&gt;id&lt;br&gt;&lt;/span&gt;" style="ellipse;whiteSpace=wrap;html=1;align=center;" vertex="1" parent="1">
          <mxGeometry x="80" y="60" width="80" height="40" as="geometry" />
        </mxCell>
        <mxCell id="YLoG_cEiAJx4C-f8SDsn-5" value="UserName" style="ellipse;whiteSpace=wrap;html=1;align=center;" vertex="1" parent="1">
          <mxGeometry x="150" y="40" width="80" height="40" as="geometry" />
        </mxCell>
        <mxCell id="YLoG_cEiAJx4C-f8SDsn-6" value="Name" style="ellipse;whiteSpace=wrap;html=1;align=center;" vertex="1" parent="1">
          <mxGeometry x="230" y="50" width="80" height="40" as="geometry" />
        </mxCell>
        <mxCell id="YLoG_cEiAJx4C-f8SDsn-7" value="Address" style="ellipse;whiteSpace=wrap;html=1;align=center;" vertex="1" parent="1">
          <mxGeometry x="40" y="110" width="80" height="40" as="geometry" />
        </mxCell>
        <mxCell id="YLoG_cEiAJx4C-f8SDsn-8" value="NIF" style="ellipse;whiteSpace=wrap;html=1;align=center;" vertex="1" parent="1">
          <mxGeometry x="30" y="170" width="80" height="40" as="geometry" />
        </mxCell>
        <mxCell id="YLoG_cEiAJx4C-f8SDsn-9" value="Email" style="ellipse;whiteSpace=wrap;html=1;align=center;" vertex="1" parent="1">
          <mxGeometry x="90" y="210" width="80" height="40" as="geometry" />
        </mxCell>
        <mxCell id="YLoG_cEiAJx4C-f8SDsn-10" value="Password" style="ellipse;whiteSpace=wrap;html=1;align=center;" vertex="1" parent="1">
          <mxGeometry x="160" y="250" width="80" height="40" as="geometry" />
        </mxCell>
        <mxCell id="YLoG_cEiAJx4C-f8SDsn-18" value="Role" style="ellipse;whiteSpace=wrap;html=1;align=center;" vertex="1" parent="1">
          <mxGeometry x="230" y="210" width="80" height="40" as="geometry" />
        </mxCell>
        <mxCell id="YLoG_cEiAJx4C-f8SDsn-21" value="MobileNumber" style="ellipse;shape=doubleEllipse;margin=3;whiteSpace=wrap;html=1;align=center;" vertex="1" parent="1">
          <mxGeometry x="330" y="20" width="100" height="40" as="geometry" />
=======
        <mxCell id="YLoG_cEiAJx4C-f8SDsn-2" value="&lt;span style=&quot;border-bottom: 1px dotted&quot;&gt;id&lt;br&gt;&lt;/span&gt;" style="ellipse;whiteSpace=wrap;html=1;align=center;" parent="1" vertex="1">
          <mxGeometry x="160" y="30" width="80" height="40" as="geometry" />
        </mxCell>
        <mxCell id="YLoG_cEiAJx4C-f8SDsn-5" value="UserName" style="ellipse;whiteSpace=wrap;html=1;align=center;" parent="1" vertex="1">
          <mxGeometry x="250" y="30" width="80" height="40" as="geometry" />
        </mxCell>
        <mxCell id="YLoG_cEiAJx4C-f8SDsn-6" value="Name" style="ellipse;whiteSpace=wrap;html=1;align=center;" parent="1" vertex="1">
          <mxGeometry x="340" y="30" width="80" height="40" as="geometry" />
        </mxCell>
        <mxCell id="YLoG_cEiAJx4C-f8SDsn-7" value="Address" style="ellipse;whiteSpace=wrap;html=1;align=center;" parent="1" vertex="1">
          <mxGeometry x="70" y="30" width="80" height="40" as="geometry" />
        </mxCell>
        <mxCell id="YLoG_cEiAJx4C-f8SDsn-8" value="NIF" style="ellipse;whiteSpace=wrap;html=1;align=center;" parent="1" vertex="1">
          <mxGeometry x="10" y="70" width="80" height="40" as="geometry" />
        </mxCell>
        <mxCell id="YLoG_cEiAJx4C-f8SDsn-9" value="Email" style="ellipse;whiteSpace=wrap;html=1;align=center;" parent="1" vertex="1">
          <mxGeometry x="10" y="120" width="80" height="40" as="geometry" />
        </mxCell>
        <mxCell id="YLoG_cEiAJx4C-f8SDsn-10" value="Password" style="ellipse;whiteSpace=wrap;html=1;align=center;" parent="1" vertex="1">
          <mxGeometry x="10" y="170" width="80" height="40" as="geometry" />
        </mxCell>
        <mxCell id="YLoG_cEiAJx4C-f8SDsn-18" value="Role" style="ellipse;whiteSpace=wrap;html=1;align=center;" parent="1" vertex="1">
          <mxGeometry x="70" y="205" width="80" height="40" as="geometry" />
        </mxCell>
        <mxCell id="YLoG_cEiAJx4C-f8SDsn-21" value="MobileNumber" style="ellipse;shape=doubleEllipse;margin=3;whiteSpace=wrap;html=1;align=center;" parent="1" vertex="1">
          <mxGeometry x="340" y="80" width="100" height="40" as="geometry" />
>>>>>>> Stashed changes
        </mxCell>
        <mxCell id="YLoG_cEiAJx4C-f8SDsn-26" style="edgeStyle=none;rounded=0;orthogonalLoop=1;jettySize=auto;html=1;exitX=0.25;exitY=0;exitDx=0;exitDy=0;entryX=0.5;entryY=1;entryDx=0;entryDy=0;" edge="1" parent="1" source="YLoG_cEiAJx4C-f8SDsn-23" target="YLoG_cEiAJx4C-f8SDsn-25">
          <mxGeometry relative="1" as="geometry" />
        </mxCell>
<<<<<<< Updated upstream
        <mxCell id="YLoG_cEiAJx4C-f8SDsn-28" style="edgeStyle=none;rounded=0;orthogonalLoop=1;jettySize=auto;html=1;exitX=0.5;exitY=0;exitDx=0;exitDy=0;entryX=0;entryY=1;entryDx=0;entryDy=0;" edge="1" parent="1" source="YLoG_cEiAJx4C-f8SDsn-23" target="YLoG_cEiAJx4C-f8SDsn-27">
          <mxGeometry relative="1" as="geometry" />
        </mxCell>
        <mxCell id="YLoG_cEiAJx4C-f8SDsn-31" style="edgeStyle=none;rounded=0;orthogonalLoop=1;jettySize=auto;html=1;exitX=0.75;exitY=0;exitDx=0;exitDy=0;entryX=0;entryY=1;entryDx=0;entryDy=0;" edge="1" parent="1" source="YLoG_cEiAJx4C-f8SDsn-23" target="YLoG_cEiAJx4C-f8SDsn-30">
          <mxGeometry relative="1" as="geometry" />
        </mxCell>
        <mxCell id="YLoG_cEiAJx4C-f8SDsn-33" style="edgeStyle=none;rounded=0;orthogonalLoop=1;jettySize=auto;html=1;exitX=1;exitY=0.5;exitDx=0;exitDy=0;entryX=0;entryY=0.5;entryDx=0;entryDy=0;" edge="1" parent="1" source="YLoG_cEiAJx4C-f8SDsn-23" target="YLoG_cEiAJx4C-f8SDsn-32">
          <mxGeometry relative="1" as="geometry" />
        </mxCell>
        <mxCell id="YLoG_cEiAJx4C-f8SDsn-23" value="Reservations" style="whiteSpace=wrap;html=1;align=center;" vertex="1" parent="1">
          <mxGeometry x="550" y="130" width="100" height="40" as="geometry" />
        </mxCell>
        <mxCell id="YLoG_cEiAJx4C-f8SDsn-25" value="Id" style="ellipse;whiteSpace=wrap;html=1;align=center;fontStyle=4;" vertex="1" parent="1">
          <mxGeometry x="520" y="30" width="80" height="40" as="geometry" />
        </mxCell>
        <mxCell id="YLoG_cEiAJx4C-f8SDsn-27" value="DateTime" style="ellipse;whiteSpace=wrap;html=1;align=center;" vertex="1" parent="1">
          <mxGeometry x="610" y="30" width="80" height="40" as="geometry" />
        </mxCell>
        <mxCell id="YLoG_cEiAJx4C-f8SDsn-29" value="DateTime" style="ellipse;whiteSpace=wrap;html=1;align=center;" vertex="1" parent="1">
          <mxGeometry x="610" y="30" width="80" height="40" as="geometry" />
        </mxCell>
        <mxCell id="YLoG_cEiAJx4C-f8SDsn-30" value="PeopleNumber" style="ellipse;whiteSpace=wrap;html=1;align=center;" vertex="1" parent="1">
          <mxGeometry x="690" y="60" width="90" height="40" as="geometry" />
        </mxCell>
        <mxCell id="YLoG_cEiAJx4C-f8SDsn-32" value="Remarks" style="ellipse;whiteSpace=wrap;html=1;align=center;" vertex="1" parent="1">
          <mxGeometry x="710" y="110" width="80" height="40" as="geometry" />
        </mxCell>
        <mxCell id="YLoG_cEiAJx4C-f8SDsn-38" style="edgeStyle=none;rounded=0;orthogonalLoop=1;jettySize=auto;html=1;exitX=0.75;exitY=0;exitDx=0;exitDy=0;entryX=0.5;entryY=1;entryDx=0;entryDy=0;" edge="1" parent="1" source="YLoG_cEiAJx4C-f8SDsn-34" target="YLoG_cEiAJx4C-f8SDsn-36">
          <mxGeometry relative="1" as="geometry" />
        </mxCell>
        <mxCell id="YLoG_cEiAJx4C-f8SDsn-39" style="edgeStyle=none;rounded=0;orthogonalLoop=1;jettySize=auto;html=1;exitX=1;exitY=0.5;exitDx=0;exitDy=0;entryX=0;entryY=0.5;entryDx=0;entryDy=0;" edge="1" parent="1" source="YLoG_cEiAJx4C-f8SDsn-34" target="YLoG_cEiAJx4C-f8SDsn-37">
          <mxGeometry relative="1" as="geometry" />
        </mxCell>
        <mxCell id="YLoG_cEiAJx4C-f8SDsn-34" value="Borards" style="whiteSpace=wrap;html=1;align=center;" vertex="1" parent="1">
          <mxGeometry x="590" y="340" width="100" height="40" as="geometry" />
        </mxCell>
        <mxCell id="YLoG_cEiAJx4C-f8SDsn-36" value="Id" style="ellipse;whiteSpace=wrap;html=1;align=center;fontStyle=4;" vertex="1" parent="1">
          <mxGeometry x="650" y="270" width="80" height="40" as="geometry" />
        </mxCell>
        <mxCell id="YLoG_cEiAJx4C-f8SDsn-37" value="Description" style="ellipse;whiteSpace=wrap;html=1;align=center;" vertex="1" parent="1">
          <mxGeometry x="730" y="320" width="80" height="40" as="geometry" />
        </mxCell>
        <mxCell id="YLoG_cEiAJx4C-f8SDsn-44" style="edgeStyle=none;rounded=0;orthogonalLoop=1;jettySize=auto;html=1;exitX=0.5;exitY=0;exitDx=0;exitDy=0;entryX=0.5;entryY=1;entryDx=0;entryDy=0;" edge="1" parent="1" source="YLoG_cEiAJx4C-f8SDsn-40" target="YLoG_cEiAJx4C-f8SDsn-41">
          <mxGeometry relative="1" as="geometry" />
        </mxCell>
        <mxCell id="YLoG_cEiAJx4C-f8SDsn-45" style="edgeStyle=none;rounded=0;orthogonalLoop=1;jettySize=auto;html=1;exitX=1;exitY=0;exitDx=0;exitDy=0;entryX=0;entryY=0.5;entryDx=0;entryDy=0;" edge="1" parent="1" source="YLoG_cEiAJx4C-f8SDsn-40" target="YLoG_cEiAJx4C-f8SDsn-43">
          <mxGeometry relative="1" as="geometry" />
        </mxCell>
        <mxCell id="YLoG_cEiAJx4C-f8SDsn-46" style="edgeStyle=none;rounded=0;orthogonalLoop=1;jettySize=auto;html=1;exitX=1;exitY=0.75;exitDx=0;exitDy=0;entryX=0;entryY=0;entryDx=0;entryDy=0;" edge="1" parent="1" source="YLoG_cEiAJx4C-f8SDsn-40" target="YLoG_cEiAJx4C-f8SDsn-42">
          <mxGeometry relative="1" as="geometry" />
        </mxCell>
        <mxCell id="YLoG_cEiAJx4C-f8SDsn-40" value="Zones" style="whiteSpace=wrap;html=1;align=center;" vertex="1" parent="1">
          <mxGeometry x="590" y="490" width="100" height="40" as="geometry" />
        </mxCell>
        <mxCell id="YLoG_cEiAJx4C-f8SDsn-41" value="Id" style="ellipse;whiteSpace=wrap;html=1;align=center;fontStyle=4;" vertex="1" parent="1">
          <mxGeometry x="660" y="410" width="80" height="40" as="geometry" />
        </mxCell>
        <mxCell id="YLoG_cEiAJx4C-f8SDsn-42" value="Description" style="ellipse;whiteSpace=wrap;html=1;align=center;" vertex="1" parent="1">
          <mxGeometry x="730" y="520" width="80" height="40" as="geometry" />
        </mxCell>
        <mxCell id="YLoG_cEiAJx4C-f8SDsn-43" value="Name" style="ellipse;whiteSpace=wrap;html=1;align=center;" vertex="1" parent="1">
          <mxGeometry x="740" y="450" width="80" height="40" as="geometry" />
        </mxCell>
        <mxCell id="YLoG_cEiAJx4C-f8SDsn-54" style="edgeStyle=none;rounded=0;orthogonalLoop=1;jettySize=auto;html=1;exitX=0.5;exitY=0;exitDx=0;exitDy=0;entryX=0.5;entryY=1;entryDx=0;entryDy=0;" edge="1" parent="1" source="YLoG_cEiAJx4C-f8SDsn-47" target="YLoG_cEiAJx4C-f8SDsn-48">
          <mxGeometry relative="1" as="geometry" />
        </mxCell>
        <mxCell id="YLoG_cEiAJx4C-f8SDsn-55" style="edgeStyle=none;rounded=0;orthogonalLoop=1;jettySize=auto;html=1;exitX=0.75;exitY=0;exitDx=0;exitDy=0;entryX=0.5;entryY=1;entryDx=0;entryDy=0;" edge="1" parent="1" source="YLoG_cEiAJx4C-f8SDsn-47" target="YLoG_cEiAJx4C-f8SDsn-49">
=======
        <mxCell id="YLoG_cEiAJx4C-f8SDsn-28" style="edgeStyle=none;rounded=0;orthogonalLoop=1;jettySize=auto;html=1;exitX=0.75;exitY=0;exitDx=0;exitDy=0;entryX=0.5;entryY=1;entryDx=0;entryDy=0;" parent="1" source="YLoG_cEiAJx4C-f8SDsn-23" target="YLoG_cEiAJx4C-f8SDsn-27" edge="1">
          <mxGeometry relative="1" as="geometry" />
        </mxCell>
        <mxCell id="YLoG_cEiAJx4C-f8SDsn-31" style="edgeStyle=none;rounded=0;orthogonalLoop=1;jettySize=auto;html=1;exitX=1;exitY=0.25;exitDx=0;exitDy=0;entryX=0;entryY=0.5;entryDx=0;entryDy=0;" parent="1" source="YLoG_cEiAJx4C-f8SDsn-23" target="YLoG_cEiAJx4C-f8SDsn-30" edge="1">
          <mxGeometry relative="1" as="geometry" />
        </mxCell>
        <mxCell id="YLoG_cEiAJx4C-f8SDsn-33" style="edgeStyle=none;rounded=0;orthogonalLoop=1;jettySize=auto;html=1;exitX=1;exitY=0.75;exitDx=0;exitDy=0;entryX=0;entryY=0.5;entryDx=0;entryDy=0;" parent="1" source="YLoG_cEiAJx4C-f8SDsn-23" target="YLoG_cEiAJx4C-f8SDsn-32" edge="1">
          <mxGeometry relative="1" as="geometry" />
        </mxCell>
        <mxCell id="YLoG_cEiAJx4C-f8SDsn-23" value="Reservations" style="whiteSpace=wrap;html=1;align=center;" parent="1" vertex="1">
          <mxGeometry x="725" y="130" width="100" height="40" as="geometry" />
        </mxCell>
        <mxCell id="YLoG_cEiAJx4C-f8SDsn-25" value="Id" style="ellipse;whiteSpace=wrap;html=1;align=center;fontStyle=4;" parent="1" vertex="1">
          <mxGeometry x="690" y="50" width="80" height="40" as="geometry" />
        </mxCell>
        <mxCell id="YLoG_cEiAJx4C-f8SDsn-27" value="DateTime" style="ellipse;whiteSpace=wrap;html=1;align=center;" parent="1" vertex="1">
          <mxGeometry x="790" y="50" width="80" height="40" as="geometry" />
        </mxCell>
        <mxCell id="YLoG_cEiAJx4C-f8SDsn-30" value="PeopleNumber" style="ellipse;whiteSpace=wrap;html=1;align=center;" parent="1" vertex="1">
          <mxGeometry x="845" y="100" width="90" height="40" as="geometry" />
        </mxCell>
        <mxCell id="YLoG_cEiAJx4C-f8SDsn-32" value="Remarks" style="ellipse;whiteSpace=wrap;html=1;align=center;" parent="1" vertex="1">
          <mxGeometry x="850" y="160" width="80" height="40" as="geometry" />
        </mxCell>
        <mxCell id="YLoG_cEiAJx4C-f8SDsn-38" style="edgeStyle=none;rounded=0;orthogonalLoop=1;jettySize=auto;html=1;exitX=1;exitY=0.25;exitDx=0;exitDy=0;entryX=0;entryY=0.5;entryDx=0;entryDy=0;" parent="1" source="YLoG_cEiAJx4C-f8SDsn-34" target="YLoG_cEiAJx4C-f8SDsn-36" edge="1">
          <mxGeometry relative="1" as="geometry" />
        </mxCell>
        <mxCell id="YLoG_cEiAJx4C-f8SDsn-39" style="edgeStyle=none;rounded=0;orthogonalLoop=1;jettySize=auto;html=1;exitX=1;exitY=0.75;exitDx=0;exitDy=0;entryX=0;entryY=0.5;entryDx=0;entryDy=0;" parent="1" source="YLoG_cEiAJx4C-f8SDsn-34" target="YLoG_cEiAJx4C-f8SDsn-37" edge="1">
          <mxGeometry relative="1" as="geometry" />
        </mxCell>
        <mxCell id="YLoG_cEiAJx4C-f8SDsn-34" value="Borards" style="whiteSpace=wrap;html=1;align=center;" parent="1" vertex="1">
          <mxGeometry x="725" y="290" width="100" height="40" as="geometry" />
        </mxCell>
        <mxCell id="YLoG_cEiAJx4C-f8SDsn-36" value="Id" style="ellipse;whiteSpace=wrap;html=1;align=center;fontStyle=4;" parent="1" vertex="1">
          <mxGeometry x="840" y="260" width="80" height="40" as="geometry" />
        </mxCell>
        <mxCell id="YLoG_cEiAJx4C-f8SDsn-37" value="Description" style="ellipse;whiteSpace=wrap;html=1;align=center;" parent="1" vertex="1">
          <mxGeometry x="840" y="320" width="80" height="40" as="geometry" />
        </mxCell>
        <mxCell id="YLoG_cEiAJx4C-f8SDsn-44" style="edgeStyle=none;rounded=0;orthogonalLoop=1;jettySize=auto;html=1;exitX=1;exitY=0.25;exitDx=0;exitDy=0;entryX=0;entryY=0.5;entryDx=0;entryDy=0;" parent="1" source="YLoG_cEiAJx4C-f8SDsn-40" target="YLoG_cEiAJx4C-f8SDsn-41" edge="1">
          <mxGeometry relative="1" as="geometry" />
        </mxCell>
        <mxCell id="YLoG_cEiAJx4C-f8SDsn-45" style="edgeStyle=none;rounded=0;orthogonalLoop=1;jettySize=auto;html=1;exitX=1;exitY=0.5;exitDx=0;exitDy=0;entryX=0;entryY=0.5;entryDx=0;entryDy=0;" parent="1" source="YLoG_cEiAJx4C-f8SDsn-40" target="YLoG_cEiAJx4C-f8SDsn-43" edge="1">
          <mxGeometry relative="1" as="geometry" />
        </mxCell>
        <mxCell id="YLoG_cEiAJx4C-f8SDsn-46" style="edgeStyle=none;rounded=0;orthogonalLoop=1;jettySize=auto;html=1;exitX=1;exitY=0.75;exitDx=0;exitDy=0;entryX=0;entryY=0.5;entryDx=0;entryDy=0;" parent="1" source="YLoG_cEiAJx4C-f8SDsn-40" target="YLoG_cEiAJx4C-f8SDsn-42" edge="1">
          <mxGeometry relative="1" as="geometry" />
        </mxCell>
        <mxCell id="YLoG_cEiAJx4C-f8SDsn-40" value="Zones" style="whiteSpace=wrap;html=1;align=center;" parent="1" vertex="1">
          <mxGeometry x="725" y="465" width="100" height="40" as="geometry" />
        </mxCell>
        <mxCell id="YLoG_cEiAJx4C-f8SDsn-41" value="Id" style="ellipse;whiteSpace=wrap;html=1;align=center;fontStyle=4;" parent="1" vertex="1">
          <mxGeometry x="845" y="420" width="80" height="40" as="geometry" />
        </mxCell>
        <mxCell id="YLoG_cEiAJx4C-f8SDsn-42" value="Description" style="ellipse;whiteSpace=wrap;html=1;align=center;" parent="1" vertex="1">
          <mxGeometry x="845" y="510" width="80" height="40" as="geometry" />
        </mxCell>
        <mxCell id="YLoG_cEiAJx4C-f8SDsn-43" value="Name" style="ellipse;whiteSpace=wrap;html=1;align=center;" parent="1" vertex="1">
          <mxGeometry x="845" y="465" width="80" height="40" as="geometry" />
        </mxCell>
        <mxCell id="YLoG_cEiAJx4C-f8SDsn-54" style="edgeStyle=none;rounded=0;orthogonalLoop=1;jettySize=auto;html=1;exitX=1;exitY=0;exitDx=0;exitDy=0;entryX=0.5;entryY=1;entryDx=0;entryDy=0;" parent="1" source="YLoG_cEiAJx4C-f8SDsn-47" target="YLoG_cEiAJx4C-f8SDsn-48" edge="1">
          <mxGeometry relative="1" as="geometry" />
        </mxCell>
        <mxCell id="YLoG_cEiAJx4C-f8SDsn-55" style="edgeStyle=none;rounded=0;orthogonalLoop=1;jettySize=auto;html=1;exitX=1;exitY=0.25;exitDx=0;exitDy=0;entryX=0;entryY=0.5;entryDx=0;entryDy=0;" parent="1" source="YLoG_cEiAJx4C-f8SDsn-47" target="YLoG_cEiAJx4C-f8SDsn-49" edge="1">
>>>>>>> Stashed changes
          <mxGeometry relative="1" as="geometry" />
        </mxCell>
        <mxCell id="YLoG_cEiAJx4C-f8SDsn-56" style="edgeStyle=none;rounded=0;orthogonalLoop=1;jettySize=auto;html=1;exitX=1;exitY=0.5;exitDx=0;exitDy=0;entryX=0;entryY=0.5;entryDx=0;entryDy=0;" edge="1" parent="1" source="YLoG_cEiAJx4C-f8SDsn-47" target="YLoG_cEiAJx4C-f8SDsn-52">
          <mxGeometry relative="1" as="geometry" />
        </mxCell>
<<<<<<< Updated upstream
        <mxCell id="YLoG_cEiAJx4C-f8SDsn-57" style="edgeStyle=none;rounded=0;orthogonalLoop=1;jettySize=auto;html=1;exitX=1;exitY=1;exitDx=0;exitDy=0;entryX=0;entryY=0.5;entryDx=0;entryDy=0;" edge="1" parent="1" source="YLoG_cEiAJx4C-f8SDsn-47" target="YLoG_cEiAJx4C-f8SDsn-53">
          <mxGeometry relative="1" as="geometry" />
        </mxCell>
        <mxCell id="YLoG_cEiAJx4C-f8SDsn-58" style="edgeStyle=none;rounded=0;orthogonalLoop=1;jettySize=auto;html=1;exitX=0.75;exitY=1;exitDx=0;exitDy=0;entryX=0.247;entryY=0.135;entryDx=0;entryDy=0;entryPerimeter=0;" edge="1" parent="1" source="YLoG_cEiAJx4C-f8SDsn-47" target="YLoG_cEiAJx4C-f8SDsn-51">
          <mxGeometry relative="1" as="geometry" />
        </mxCell>
        <mxCell id="YLoG_cEiAJx4C-f8SDsn-59" style="edgeStyle=none;rounded=0;orthogonalLoop=1;jettySize=auto;html=1;exitX=0.5;exitY=1;exitDx=0;exitDy=0;entryX=0.5;entryY=0;entryDx=0;entryDy=0;" edge="1" parent="1" source="YLoG_cEiAJx4C-f8SDsn-47" target="YLoG_cEiAJx4C-f8SDsn-50">
          <mxGeometry relative="1" as="geometry" />
        </mxCell>
        <mxCell id="YLoG_cEiAJx4C-f8SDsn-47" value="Restaurants" style="whiteSpace=wrap;html=1;align=center;" vertex="1" parent="1">
          <mxGeometry x="590" y="670" width="100" height="40" as="geometry" />
        </mxCell>
        <mxCell id="YLoG_cEiAJx4C-f8SDsn-48" value="Id" style="ellipse;whiteSpace=wrap;html=1;align=center;fontStyle=4;" vertex="1" parent="1">
          <mxGeometry x="590" y="600" width="80" height="40" as="geometry" />
        </mxCell>
        <mxCell id="YLoG_cEiAJx4C-f8SDsn-49" value="Name" style="ellipse;whiteSpace=wrap;html=1;align=center;" vertex="1" parent="1">
          <mxGeometry x="690" y="600" width="80" height="40" as="geometry" />
        </mxCell>
        <mxCell id="YLoG_cEiAJx4C-f8SDsn-50" value="PhoneNumber" style="ellipse;whiteSpace=wrap;html=1;align=center;" vertex="1" parent="1">
          <mxGeometry x="610" y="760" width="80" height="40" as="geometry" />
        </mxCell>
        <mxCell id="YLoG_cEiAJx4C-f8SDsn-51" value="Email" style="ellipse;whiteSpace=wrap;html=1;align=center;" vertex="1" parent="1">
          <mxGeometry x="695" y="760" width="80" height="40" as="geometry" />
        </mxCell>
        <mxCell id="YLoG_cEiAJx4C-f8SDsn-52" value="Address" style="ellipse;whiteSpace=wrap;html=1;align=center;" vertex="1" parent="1">
          <mxGeometry x="730" y="650" width="80" height="40" as="geometry" />
        </mxCell>
        <mxCell id="YLoG_cEiAJx4C-f8SDsn-53" value="NIF" style="ellipse;whiteSpace=wrap;html=1;align=center;" vertex="1" parent="1">
          <mxGeometry x="730" y="710" width="80" height="40" as="geometry" />
        </mxCell>
        <mxCell id="YLoG_cEiAJx4C-f8SDsn-64" style="edgeStyle=none;rounded=0;orthogonalLoop=1;jettySize=auto;html=1;exitX=0.5;exitY=0;exitDx=0;exitDy=0;entryX=0.5;entryY=1;entryDx=0;entryDy=0;" edge="1" parent="1" source="YLoG_cEiAJx4C-f8SDsn-60" target="YLoG_cEiAJx4C-f8SDsn-61">
          <mxGeometry relative="1" as="geometry" />
        </mxCell>
        <mxCell id="YLoG_cEiAJx4C-f8SDsn-65" style="edgeStyle=none;rounded=0;orthogonalLoop=1;jettySize=auto;html=1;exitX=1;exitY=0;exitDx=0;exitDy=0;entryX=0;entryY=0.5;entryDx=0;entryDy=0;" edge="1" parent="1" source="YLoG_cEiAJx4C-f8SDsn-60" target="YLoG_cEiAJx4C-f8SDsn-63">
          <mxGeometry relative="1" as="geometry" />
        </mxCell>
        <mxCell id="YLoG_cEiAJx4C-f8SDsn-66" style="edgeStyle=none;rounded=0;orthogonalLoop=1;jettySize=auto;html=1;exitX=1;exitY=0.5;exitDx=0;exitDy=0;entryX=0;entryY=0;entryDx=0;entryDy=0;" edge="1" parent="1" source="YLoG_cEiAJx4C-f8SDsn-60" target="YLoG_cEiAJx4C-f8SDsn-62">
          <mxGeometry relative="1" as="geometry" />
        </mxCell>
        <mxCell id="YLoG_cEiAJx4C-f8SDsn-60" value="Cards" style="whiteSpace=wrap;html=1;align=center;" vertex="1" parent="1">
          <mxGeometry x="600" y="910" width="100" height="40" as="geometry" />
        </mxCell>
        <mxCell id="YLoG_cEiAJx4C-f8SDsn-61" value="Id" style="ellipse;whiteSpace=wrap;html=1;align=center;fontStyle=4;" vertex="1" parent="1">
          <mxGeometry x="615" y="830" width="80" height="40" as="geometry" />
        </mxCell>
        <mxCell id="YLoG_cEiAJx4C-f8SDsn-62" value="DayOfWeek" style="ellipse;whiteSpace=wrap;html=1;align=center;" vertex="1" parent="1">
          <mxGeometry x="730" y="940" width="80" height="40" as="geometry" />
        </mxCell>
        <mxCell id="YLoG_cEiAJx4C-f8SDsn-63" value="DateTime" style="ellipse;whiteSpace=wrap;html=1;align=center;" vertex="1" parent="1">
          <mxGeometry x="730" y="870" width="80" height="40" as="geometry" />
        </mxCell>
        <mxCell id="YLoG_cEiAJx4C-f8SDsn-72" style="edgeStyle=none;rounded=0;orthogonalLoop=1;jettySize=auto;html=1;exitX=1;exitY=0.25;exitDx=0;exitDy=0;entryX=0;entryY=0.5;entryDx=0;entryDy=0;" edge="1" parent="1" source="YLoG_cEiAJx4C-f8SDsn-68" target="YLoG_cEiAJx4C-f8SDsn-69">
          <mxGeometry relative="1" as="geometry" />
        </mxCell>
        <mxCell id="YLoG_cEiAJx4C-f8SDsn-73" style="edgeStyle=none;rounded=0;orthogonalLoop=1;jettySize=auto;html=1;exitX=1;exitY=0.75;exitDx=0;exitDy=0;entryX=0;entryY=0.5;entryDx=0;entryDy=0;" edge="1" parent="1" source="YLoG_cEiAJx4C-f8SDsn-68" target="YLoG_cEiAJx4C-f8SDsn-70">
          <mxGeometry relative="1" as="geometry" />
        </mxCell>
        <mxCell id="YLoG_cEiAJx4C-f8SDsn-74" style="edgeStyle=none;rounded=0;orthogonalLoop=1;jettySize=auto;html=1;exitX=0.5;exitY=1;exitDx=0;exitDy=0;entryX=0.5;entryY=0;entryDx=0;entryDy=0;" edge="1" parent="1" source="YLoG_cEiAJx4C-f8SDsn-68" target="YLoG_cEiAJx4C-f8SDsn-71">
          <mxGeometry relative="1" as="geometry" />
        </mxCell>
        <mxCell id="YLoG_cEiAJx4C-f8SDsn-68" value="Subscriptions" style="whiteSpace=wrap;html=1;align=center;" vertex="1" parent="1">
          <mxGeometry x="360" y="910" width="100" height="40" as="geometry" />
        </mxCell>
        <mxCell id="YLoG_cEiAJx4C-f8SDsn-69" value="Id" style="ellipse;whiteSpace=wrap;html=1;align=center;fontStyle=4;" vertex="1" parent="1">
          <mxGeometry x="490" y="880" width="80" height="40" as="geometry" />
        </mxCell>
        <mxCell id="YLoG_cEiAJx4C-f8SDsn-70" value="Value" style="ellipse;whiteSpace=wrap;html=1;align=center;" vertex="1" parent="1">
          <mxGeometry x="490" y="940" width="80" height="40" as="geometry" />
        </mxCell>
        <mxCell id="YLoG_cEiAJx4C-f8SDsn-71" value="PaymentDate" style="ellipse;whiteSpace=wrap;html=1;align=center;" vertex="1" parent="1">
          <mxGeometry x="390" y="980" width="80" height="40" as="geometry" />
        </mxCell>
        <mxCell id="YLoG_cEiAJx4C-f8SDsn-79" style="edgeStyle=none;rounded=0;orthogonalLoop=1;jettySize=auto;html=1;exitX=0.75;exitY=1;exitDx=0;exitDy=0;entryX=0.5;entryY=0;entryDx=0;entryDy=0;" edge="1" parent="1" source="YLoG_cEiAJx4C-f8SDsn-75" target="YLoG_cEiAJx4C-f8SDsn-78">
          <mxGeometry relative="1" as="geometry" />
        </mxCell>
        <mxCell id="YLoG_cEiAJx4C-f8SDsn-80" style="edgeStyle=none;rounded=0;orthogonalLoop=1;jettySize=auto;html=1;exitX=0.25;exitY=1;exitDx=0;exitDy=0;entryX=0.5;entryY=0;entryDx=0;entryDy=0;" edge="1" parent="1" source="YLoG_cEiAJx4C-f8SDsn-75" target="YLoG_cEiAJx4C-f8SDsn-77">
          <mxGeometry relative="1" as="geometry" />
        </mxCell>
        <mxCell id="YLoG_cEiAJx4C-f8SDsn-81" style="edgeStyle=none;rounded=0;orthogonalLoop=1;jettySize=auto;html=1;exitX=0;exitY=0.5;exitDx=0;exitDy=0;entryX=1;entryY=0;entryDx=0;entryDy=0;" edge="1" parent="1" source="YLoG_cEiAJx4C-f8SDsn-75" target="YLoG_cEiAJx4C-f8SDsn-76">
          <mxGeometry relative="1" as="geometry" />
        </mxCell>
        <mxCell id="YLoG_cEiAJx4C-f8SDsn-75" value="Reviews" style="whiteSpace=wrap;html=1;align=center;" vertex="1" parent="1">
          <mxGeometry x="160" y="900" width="100" height="40" as="geometry" />
        </mxCell>
        <mxCell id="YLoG_cEiAJx4C-f8SDsn-76" value="Id" style="ellipse;whiteSpace=wrap;html=1;align=center;fontStyle=4;" vertex="1" parent="1">
          <mxGeometry x="40" y="930" width="80" height="40" as="geometry" />
        </mxCell>
        <mxCell id="YLoG_cEiAJx4C-f8SDsn-77" value="Stars" style="ellipse;whiteSpace=wrap;html=1;align=center;" vertex="1" parent="1">
          <mxGeometry x="120" y="960" width="80" height="40" as="geometry" />
        </mxCell>
        <mxCell id="YLoG_cEiAJx4C-f8SDsn-78" value="Descripton" style="ellipse;whiteSpace=wrap;html=1;align=center;" vertex="1" parent="1">
          <mxGeometry x="220" y="960" width="80" height="40" as="geometry" />
        </mxCell>
        <mxCell id="YLoG_cEiAJx4C-f8SDsn-84" style="edgeStyle=none;rounded=0;orthogonalLoop=1;jettySize=auto;html=1;exitX=0.5;exitY=0;exitDx=0;exitDy=0;entryX=0.5;entryY=1;entryDx=0;entryDy=0;" edge="1" parent="1" source="YLoG_cEiAJx4C-f8SDsn-82" target="YLoG_cEiAJx4C-f8SDsn-83">
          <mxGeometry relative="1" as="geometry" />
        </mxCell>
        <mxCell id="YLoG_cEiAJx4C-f8SDsn-89" style="edgeStyle=none;rounded=0;orthogonalLoop=1;jettySize=auto;html=1;exitX=0.25;exitY=0;exitDx=0;exitDy=0;entryX=1;entryY=0.5;entryDx=0;entryDy=0;" edge="1" parent="1" source="YLoG_cEiAJx4C-f8SDsn-82" target="YLoG_cEiAJx4C-f8SDsn-87">
          <mxGeometry relative="1" as="geometry" />
        </mxCell>
        <mxCell id="YLoG_cEiAJx4C-f8SDsn-90" style="edgeStyle=none;rounded=0;orthogonalLoop=1;jettySize=auto;html=1;exitX=0.25;exitY=1;exitDx=0;exitDy=0;entryX=1;entryY=0.5;entryDx=0;entryDy=0;" edge="1" parent="1" source="YLoG_cEiAJx4C-f8SDsn-82" target="YLoG_cEiAJx4C-f8SDsn-85">
          <mxGeometry relative="1" as="geometry" />
        </mxCell>
        <mxCell id="YLoG_cEiAJx4C-f8SDsn-91" style="edgeStyle=none;rounded=0;orthogonalLoop=1;jettySize=auto;html=1;exitX=0;exitY=0.5;exitDx=0;exitDy=0;entryX=1;entryY=0.5;entryDx=0;entryDy=0;" edge="1" parent="1" source="YLoG_cEiAJx4C-f8SDsn-82" target="YLoG_cEiAJx4C-f8SDsn-86">
          <mxGeometry relative="1" as="geometry" />
        </mxCell>
        <mxCell id="YLoG_cEiAJx4C-f8SDsn-82" value="FoodOrders" style="whiteSpace=wrap;html=1;align=center;" vertex="1" parent="1">
          <mxGeometry x="140" y="460" width="100" height="40" as="geometry" />
        </mxCell>
        <mxCell id="YLoG_cEiAJx4C-f8SDsn-83" value="Id" style="ellipse;whiteSpace=wrap;html=1;align=center;fontStyle=4;" vertex="1" parent="1">
          <mxGeometry x="160" y="390" width="80" height="40" as="geometry" />
        </mxCell>
        <mxCell id="YLoG_cEiAJx4C-f8SDsn-85" value="State" style="ellipse;whiteSpace=wrap;html=1;align=center;" vertex="1" parent="1">
          <mxGeometry x="70" y="520" width="80" height="40" as="geometry" />
        </mxCell>
        <mxCell id="YLoG_cEiAJx4C-f8SDsn-86" value="TakeAway" style="ellipse;whiteSpace=wrap;html=1;align=center;" vertex="1" parent="1">
          <mxGeometry x="20" y="460" width="80" height="40" as="geometry" />
        </mxCell>
        <mxCell id="YLoG_cEiAJx4C-f8SDsn-87" value="Price" style="ellipse;whiteSpace=wrap;html=1;align=center;" vertex="1" parent="1">
          <mxGeometry x="70" y="410" width="80" height="40" as="geometry" />
=======
        <mxCell id="YLoG_cEiAJx4C-f8SDsn-57" style="edgeStyle=none;rounded=0;orthogonalLoop=1;jettySize=auto;html=1;exitX=1;exitY=0.5;exitDx=0;exitDy=0;entryX=0;entryY=0.5;entryDx=0;entryDy=0;" parent="1" source="YLoG_cEiAJx4C-f8SDsn-47" target="YLoG_cEiAJx4C-f8SDsn-53" edge="1">
          <mxGeometry relative="1" as="geometry" />
        </mxCell>
        <mxCell id="YLoG_cEiAJx4C-f8SDsn-58" style="edgeStyle=none;rounded=0;orthogonalLoop=1;jettySize=auto;html=1;exitX=1;exitY=0.75;exitDx=0;exitDy=0;entryX=0;entryY=0.5;entryDx=0;entryDy=0;" parent="1" source="YLoG_cEiAJx4C-f8SDsn-47" target="YLoG_cEiAJx4C-f8SDsn-51" edge="1">
          <mxGeometry relative="1" as="geometry" />
        </mxCell>
        <mxCell id="YLoG_cEiAJx4C-f8SDsn-59" style="edgeStyle=none;rounded=0;orthogonalLoop=1;jettySize=auto;html=1;exitX=1;exitY=1;exitDx=0;exitDy=0;entryX=0.5;entryY=0;entryDx=0;entryDy=0;" parent="1" source="YLoG_cEiAJx4C-f8SDsn-47" target="YLoG_cEiAJx4C-f8SDsn-50" edge="1">
          <mxGeometry relative="1" as="geometry" />
        </mxCell>
        <mxCell id="YLoG_cEiAJx4C-f8SDsn-47" value="Restaurants" style="whiteSpace=wrap;html=1;align=center;" parent="1" vertex="1">
          <mxGeometry x="725" y="640" width="100" height="40" as="geometry" />
        </mxCell>
        <mxCell id="YLoG_cEiAJx4C-f8SDsn-48" value="Id" style="ellipse;whiteSpace=wrap;html=1;align=center;fontStyle=4;" parent="1" vertex="1">
          <mxGeometry x="830" y="580" width="80" height="40" as="geometry" />
        </mxCell>
        <mxCell id="YLoG_cEiAJx4C-f8SDsn-49" value="Name" style="ellipse;whiteSpace=wrap;html=1;align=center;" parent="1" vertex="1">
          <mxGeometry x="920" y="590" width="80" height="40" as="geometry" />
        </mxCell>
        <mxCell id="YLoG_cEiAJx4C-f8SDsn-50" value="PhoneNumber" style="ellipse;whiteSpace=wrap;html=1;align=center;" parent="1" vertex="1">
          <mxGeometry x="830" y="700" width="80" height="40" as="geometry" />
        </mxCell>
        <mxCell id="YLoG_cEiAJx4C-f8SDsn-51" value="Email" style="ellipse;whiteSpace=wrap;html=1;align=center;" parent="1" vertex="1">
          <mxGeometry x="920" y="685" width="80" height="40" as="geometry" />
        </mxCell>
        <mxCell id="YLoG_cEiAJx4C-f8SDsn-52" value="Address" style="ellipse;whiteSpace=wrap;html=1;align=center;" parent="1" vertex="1">
          <mxGeometry x="1000" y="610" width="80" height="40" as="geometry" />
        </mxCell>
        <mxCell id="YLoG_cEiAJx4C-f8SDsn-53" value="NIF" style="ellipse;whiteSpace=wrap;html=1;align=center;" parent="1" vertex="1">
          <mxGeometry x="1000" y="665" width="80" height="40" as="geometry" />
        </mxCell>
        <mxCell id="YLoG_cEiAJx4C-f8SDsn-64" style="edgeStyle=none;rounded=0;orthogonalLoop=1;jettySize=auto;html=1;exitX=1;exitY=0.5;exitDx=0;exitDy=0;entryX=0;entryY=0.5;entryDx=0;entryDy=0;" parent="1" source="YLoG_cEiAJx4C-f8SDsn-60" target="YLoG_cEiAJx4C-f8SDsn-61" edge="1">
          <mxGeometry relative="1" as="geometry" />
        </mxCell>
        <mxCell id="YLoG_cEiAJx4C-f8SDsn-65" style="edgeStyle=none;rounded=0;orthogonalLoop=1;jettySize=auto;html=1;exitX=1;exitY=0.25;exitDx=0;exitDy=0;entryX=0;entryY=0.5;entryDx=0;entryDy=0;" parent="1" source="YLoG_cEiAJx4C-f8SDsn-60" target="YLoG_cEiAJx4C-f8SDsn-63" edge="1">
          <mxGeometry relative="1" as="geometry" />
        </mxCell>
        <mxCell id="YLoG_cEiAJx4C-f8SDsn-66" style="edgeStyle=none;rounded=0;orthogonalLoop=1;jettySize=auto;html=1;entryX=0;entryY=0.5;entryDx=0;entryDy=0;exitX=1;exitY=0.75;exitDx=0;exitDy=0;" parent="1" source="YLoG_cEiAJx4C-f8SDsn-60" target="YLoG_cEiAJx4C-f8SDsn-62" edge="1">
          <mxGeometry relative="1" as="geometry">
            <mxPoint x="820" y="910" as="sourcePoint" />
          </mxGeometry>
        </mxCell>
        <mxCell id="YLoG_cEiAJx4C-f8SDsn-60" value="Cards" style="whiteSpace=wrap;html=1;align=center;" parent="1" vertex="1">
          <mxGeometry x="715" y="877.5" width="100" height="40" as="geometry" />
        </mxCell>
        <mxCell id="YLoG_cEiAJx4C-f8SDsn-61" value="Id" style="ellipse;whiteSpace=wrap;html=1;align=center;fontStyle=4;" parent="1" vertex="1">
          <mxGeometry x="900" y="877.5" width="80" height="40" as="geometry" />
        </mxCell>
        <mxCell id="YLoG_cEiAJx4C-f8SDsn-62" value="DayOfWeek" style="ellipse;whiteSpace=wrap;html=1;align=center;" parent="1" vertex="1">
          <mxGeometry x="835" y="917.5" width="80" height="40" as="geometry" />
        </mxCell>
        <mxCell id="YLoG_cEiAJx4C-f8SDsn-63" value="DateTime" style="ellipse;whiteSpace=wrap;html=1;align=center;" parent="1" vertex="1">
          <mxGeometry x="835" y="840" width="80" height="40" as="geometry" />
        </mxCell>
        <mxCell id="YLoG_cEiAJx4C-f8SDsn-72" style="edgeStyle=none;rounded=0;orthogonalLoop=1;jettySize=auto;html=1;exitX=1;exitY=0.5;exitDx=0;exitDy=0;entryX=0;entryY=0.5;entryDx=0;entryDy=0;" parent="1" source="YLoG_cEiAJx4C-f8SDsn-68" target="YLoG_cEiAJx4C-f8SDsn-69" edge="1">
          <mxGeometry relative="1" as="geometry" />
        </mxCell>
        <mxCell id="YLoG_cEiAJx4C-f8SDsn-73" style="edgeStyle=none;rounded=0;orthogonalLoop=1;jettySize=auto;html=1;exitX=1;exitY=0.25;exitDx=0;exitDy=0;entryX=0;entryY=0.5;entryDx=0;entryDy=0;" parent="1" source="YLoG_cEiAJx4C-f8SDsn-68" target="YLoG_cEiAJx4C-f8SDsn-70" edge="1">
          <mxGeometry relative="1" as="geometry" />
        </mxCell>
        <mxCell id="YLoG_cEiAJx4C-f8SDsn-74" style="edgeStyle=none;rounded=0;orthogonalLoop=1;jettySize=auto;html=1;entryX=0;entryY=0.5;entryDx=0;entryDy=0;" parent="1" target="YLoG_cEiAJx4C-f8SDsn-71" edge="1">
          <mxGeometry relative="1" as="geometry">
            <mxPoint x="1170" y="795" as="sourcePoint" />
          </mxGeometry>
        </mxCell>
        <mxCell id="YLoG_cEiAJx4C-f8SDsn-68" value="Subscriptions" style="whiteSpace=wrap;html=1;align=center;" parent="1" vertex="1">
          <mxGeometry x="1070" y="765" width="100" height="40" as="geometry" />
        </mxCell>
        <mxCell id="YLoG_cEiAJx4C-f8SDsn-69" value="Id" style="ellipse;whiteSpace=wrap;html=1;align=center;fontStyle=4;" parent="1" vertex="1">
          <mxGeometry x="1220" y="765" width="80" height="40" as="geometry" />
        </mxCell>
        <mxCell id="YLoG_cEiAJx4C-f8SDsn-70" value="Value" style="ellipse;whiteSpace=wrap;html=1;align=center;" parent="1" vertex="1">
          <mxGeometry x="1200" y="715" width="80" height="40" as="geometry" />
        </mxCell>
        <mxCell id="YLoG_cEiAJx4C-f8SDsn-71" value="PaymentDate" style="ellipse;whiteSpace=wrap;html=1;align=center;" parent="1" vertex="1">
          <mxGeometry x="1200" y="815" width="80" height="40" as="geometry" />
        </mxCell>
        <mxCell id="YLoG_cEiAJx4C-f8SDsn-79" style="edgeStyle=none;rounded=0;orthogonalLoop=1;jettySize=auto;html=1;exitX=0.75;exitY=1;exitDx=0;exitDy=0;entryX=0;entryY=0;entryDx=0;entryDy=0;" parent="1" source="YLoG_cEiAJx4C-f8SDsn-75" target="YLoG_cEiAJx4C-f8SDsn-78" edge="1">
          <mxGeometry relative="1" as="geometry" />
        </mxCell>
        <mxCell id="YLoG_cEiAJx4C-f8SDsn-80" style="edgeStyle=none;rounded=0;orthogonalLoop=1;jettySize=auto;html=1;exitX=0.5;exitY=1;exitDx=0;exitDy=0;entryX=0.5;entryY=0;entryDx=0;entryDy=0;" parent="1" source="YLoG_cEiAJx4C-f8SDsn-75" target="YLoG_cEiAJx4C-f8SDsn-77" edge="1">
          <mxGeometry relative="1" as="geometry" />
        </mxCell>
        <mxCell id="YLoG_cEiAJx4C-f8SDsn-81" style="edgeStyle=none;rounded=0;orthogonalLoop=1;jettySize=auto;html=1;exitX=0.25;exitY=1;exitDx=0;exitDy=0;entryX=1;entryY=0;entryDx=0;entryDy=0;" parent="1" source="YLoG_cEiAJx4C-f8SDsn-75" target="YLoG_cEiAJx4C-f8SDsn-76" edge="1">
          <mxGeometry relative="1" as="geometry" />
        </mxCell>
        <mxCell id="YLoG_cEiAJx4C-f8SDsn-75" value="Reviews" style="whiteSpace=wrap;html=1;align=center;" parent="1" vertex="1">
          <mxGeometry x="150" y="740" width="100" height="40" as="geometry" />
        </mxCell>
        <mxCell id="YLoG_cEiAJx4C-f8SDsn-76" value="Id" style="ellipse;whiteSpace=wrap;html=1;align=center;fontStyle=4;" parent="1" vertex="1">
          <mxGeometry x="79.73" y="800" width="80" height="40" as="geometry" />
        </mxCell>
        <mxCell id="YLoG_cEiAJx4C-f8SDsn-77" value="Stars" style="ellipse;whiteSpace=wrap;html=1;align=center;" parent="1" vertex="1">
          <mxGeometry x="159.73" y="840" width="80" height="40" as="geometry" />
        </mxCell>
        <mxCell id="YLoG_cEiAJx4C-f8SDsn-78" value="Descripton" style="ellipse;whiteSpace=wrap;html=1;align=center;" parent="1" vertex="1">
          <mxGeometry x="239.73" y="800" width="80" height="40" as="geometry" />
        </mxCell>
        <mxCell id="YLoG_cEiAJx4C-f8SDsn-84" style="edgeStyle=none;rounded=0;orthogonalLoop=1;jettySize=auto;html=1;exitX=0.75;exitY=0;exitDx=0;exitDy=0;entryX=0.5;entryY=1;entryDx=0;entryDy=0;" parent="1" source="YLoG_cEiAJx4C-f8SDsn-82" target="YLoG_cEiAJx4C-f8SDsn-83" edge="1">
          <mxGeometry relative="1" as="geometry" />
        </mxCell>
        <mxCell id="YLoG_cEiAJx4C-f8SDsn-89" style="edgeStyle=none;rounded=0;orthogonalLoop=1;jettySize=auto;html=1;exitX=0.5;exitY=0;exitDx=0;exitDy=0;entryX=0.5;entryY=1;entryDx=0;entryDy=0;" parent="1" source="YLoG_cEiAJx4C-f8SDsn-82" target="YLoG_cEiAJx4C-f8SDsn-87" edge="1">
          <mxGeometry relative="1" as="geometry" />
        </mxCell>
        <mxCell id="YLoG_cEiAJx4C-f8SDsn-90" style="edgeStyle=none;rounded=0;orthogonalLoop=1;jettySize=auto;html=1;exitX=0.5;exitY=1;exitDx=0;exitDy=0;entryX=0.5;entryY=0;entryDx=0;entryDy=0;" parent="1" source="YLoG_cEiAJx4C-f8SDsn-82" target="YLoG_cEiAJx4C-f8SDsn-85" edge="1">
          <mxGeometry relative="1" as="geometry" />
        </mxCell>
        <mxCell id="YLoG_cEiAJx4C-f8SDsn-91" style="edgeStyle=none;rounded=0;orthogonalLoop=1;jettySize=auto;html=1;exitX=0.25;exitY=0;exitDx=0;exitDy=0;entryX=1;entryY=0.5;entryDx=0;entryDy=0;" parent="1" source="YLoG_cEiAJx4C-f8SDsn-82" target="YLoG_cEiAJx4C-f8SDsn-86" edge="1">
          <mxGeometry relative="1" as="geometry" />
        </mxCell>
        <mxCell id="YLoG_cEiAJx4C-f8SDsn-82" value="FoodOrders" style="whiteSpace=wrap;html=1;align=center;" parent="1" vertex="1">
          <mxGeometry x="467.5" y="465" width="100" height="40" as="geometry" />
        </mxCell>
        <mxCell id="YLoG_cEiAJx4C-f8SDsn-83" value="Id" style="ellipse;whiteSpace=wrap;html=1;align=center;fontStyle=4;" parent="1" vertex="1">
          <mxGeometry x="525" y="400" width="80" height="40" as="geometry" />
        </mxCell>
        <mxCell id="YLoG_cEiAJx4C-f8SDsn-85" value="State" style="ellipse;whiteSpace=wrap;html=1;align=center;" parent="1" vertex="1">
          <mxGeometry x="477.5" y="540" width="80" height="40" as="geometry" />
        </mxCell>
        <mxCell id="YLoG_cEiAJx4C-f8SDsn-86" value="TakeAway" style="ellipse;whiteSpace=wrap;html=1;align=center;" parent="1" vertex="1">
          <mxGeometry x="410" y="400" width="80" height="40" as="geometry" />
        </mxCell>
        <mxCell id="YLoG_cEiAJx4C-f8SDsn-87" value="Price" style="ellipse;whiteSpace=wrap;html=1;align=center;" parent="1" vertex="1">
          <mxGeometry x="477.5" y="355" width="80" height="40" as="geometry" />
>>>>>>> Stashed changes
        </mxCell>
        <mxCell id="YLoG_cEiAJx4C-f8SDsn-95" style="edgeStyle=none;rounded=0;orthogonalLoop=1;jettySize=auto;html=1;exitX=0.5;exitY=0;exitDx=0;exitDy=0;entryX=0.5;entryY=1;entryDx=0;entryDy=0;" edge="1" parent="1" source="YLoG_cEiAJx4C-f8SDsn-92" target="YLoG_cEiAJx4C-f8SDsn-94">
          <mxGeometry relative="1" as="geometry" />
        </mxCell>
<<<<<<< Updated upstream
        <mxCell id="YLoG_cEiAJx4C-f8SDsn-96" style="edgeStyle=none;rounded=0;orthogonalLoop=1;jettySize=auto;html=1;exitX=0.5;exitY=1;exitDx=0;exitDy=0;entryX=0.5;entryY=0;entryDx=0;entryDy=0;" edge="1" parent="1" source="YLoG_cEiAJx4C-f8SDsn-92" target="YLoG_cEiAJx4C-f8SDsn-93">
          <mxGeometry relative="1" as="geometry" />
        </mxCell>
        <mxCell id="YLoG_cEiAJx4C-f8SDsn-92" value="OrderedItems" style="whiteSpace=wrap;html=1;align=center;" vertex="1" parent="1">
          <mxGeometry x="15" y="700" width="100" height="40" as="geometry" />
        </mxCell>
        <mxCell id="YLoG_cEiAJx4C-f8SDsn-93" value="Id" style="ellipse;whiteSpace=wrap;html=1;align=center;fontStyle=4;" vertex="1" parent="1">
          <mxGeometry x="25" y="760" width="80" height="40" as="geometry" />
        </mxCell>
        <mxCell id="YLoG_cEiAJx4C-f8SDsn-94" value="Quantity" style="ellipse;whiteSpace=wrap;html=1;align=center;" vertex="1" parent="1">
          <mxGeometry x="30" y="640" width="70" height="40" as="geometry" />
=======
        <mxCell id="YLoG_cEiAJx4C-f8SDsn-96" style="edgeStyle=none;rounded=0;orthogonalLoop=1;jettySize=auto;html=1;exitX=0.25;exitY=0;exitDx=0;exitDy=0;entryX=1;entryY=1;entryDx=0;entryDy=0;" parent="1" source="YLoG_cEiAJx4C-f8SDsn-92" target="YLoG_cEiAJx4C-f8SDsn-93" edge="1">
          <mxGeometry relative="1" as="geometry" />
        </mxCell>
        <mxCell id="YLoG_cEiAJx4C-f8SDsn-92" value="OrderedItems" style="whiteSpace=wrap;html=1;align=center;" parent="1" vertex="1">
          <mxGeometry x="309.73" y="625" width="100" height="40" as="geometry" />
        </mxCell>
        <mxCell id="YLoG_cEiAJx4C-f8SDsn-93" value="Id" style="ellipse;whiteSpace=wrap;html=1;align=center;fontStyle=4;" parent="1" vertex="1">
          <mxGeometry x="239.73" y="570" width="80" height="40" as="geometry" />
        </mxCell>
        <mxCell id="YLoG_cEiAJx4C-f8SDsn-94" value="Quantity" style="ellipse;whiteSpace=wrap;html=1;align=center;" parent="1" vertex="1">
          <mxGeometry x="324.73" y="555" width="70" height="40" as="geometry" />
>>>>>>> Stashed changes
        </mxCell>
        <mxCell id="YLoG_cEiAJx4C-f8SDsn-100" style="edgeStyle=none;rounded=0;orthogonalLoop=1;jettySize=auto;html=1;exitX=0.5;exitY=1;exitDx=0;exitDy=0;entryX=0.5;entryY=0;entryDx=0;entryDy=0;" edge="1" parent="1" source="YLoG_cEiAJx4C-f8SDsn-97" target="YLoG_cEiAJx4C-f8SDsn-98">
          <mxGeometry relative="1" as="geometry" />
        </mxCell>
        <mxCell id="YLoG_cEiAJx4C-f8SDsn-101" style="edgeStyle=none;rounded=0;orthogonalLoop=1;jettySize=auto;html=1;exitX=0.5;exitY=0;exitDx=0;exitDy=0;entryX=0.5;entryY=1;entryDx=0;entryDy=0;" edge="1" parent="1" source="YLoG_cEiAJx4C-f8SDsn-97" target="YLoG_cEiAJx4C-f8SDsn-99">
          <mxGeometry relative="1" as="geometry" />
        </mxCell>
<<<<<<< Updated upstream
        <mxCell id="YLoG_cEiAJx4C-f8SDsn-97" value="ItemsIngredients" style="whiteSpace=wrap;html=1;align=center;" vertex="1" parent="1">
          <mxGeometry x="180" y="700" width="100" height="40" as="geometry" />
        </mxCell>
        <mxCell id="YLoG_cEiAJx4C-f8SDsn-98" value="Id" style="ellipse;whiteSpace=wrap;html=1;align=center;fontStyle=4;" vertex="1" parent="1">
          <mxGeometry x="190" y="760" width="80" height="40" as="geometry" />
        </mxCell>
        <mxCell id="YLoG_cEiAJx4C-f8SDsn-99" value="UsedQuantity" style="ellipse;whiteSpace=wrap;html=1;align=center;" vertex="1" parent="1">
          <mxGeometry x="190" y="640" width="80" height="40" as="geometry" />
        </mxCell>
        <mxCell id="YLoG_cEiAJx4C-f8SDsn-102" value="Id" style="ellipse;whiteSpace=wrap;html=1;align=center;fontStyle=4;" vertex="1" parent="1">
          <mxGeometry x="337.5" y="760" width="85" height="40" as="geometry" />
        </mxCell>
        <mxCell id="YLoG_cEiAJx4C-f8SDsn-103" value="Name" style="ellipse;whiteSpace=wrap;html=1;align=center;" vertex="1" parent="1">
          <mxGeometry x="385" y="640" width="80" height="40" as="geometry" />
        </mxCell>
        <mxCell id="YLoG_cEiAJx4C-f8SDsn-104" value="StockQuantity" style="ellipse;whiteSpace=wrap;html=1;align=center;" vertex="1" parent="1">
          <mxGeometry x="300" y="640" width="80" height="40" as="geometry" />
=======
        <mxCell id="YLoG_cEiAJx4C-f8SDsn-97" value="ItemsIngredients" style="whiteSpace=wrap;html=1;align=center;" parent="1" vertex="1">
          <mxGeometry x="351.25" y="1220" width="100" height="40" as="geometry" />
        </mxCell>
        <mxCell id="YLoG_cEiAJx4C-f8SDsn-98" value="Id" style="ellipse;whiteSpace=wrap;html=1;align=center;fontStyle=4;" parent="1" vertex="1">
          <mxGeometry x="361.25" y="1280" width="80" height="40" as="geometry" />
        </mxCell>
        <mxCell id="YLoG_cEiAJx4C-f8SDsn-99" value="UsedQuantity" style="ellipse;whiteSpace=wrap;html=1;align=center;" parent="1" vertex="1">
          <mxGeometry x="361.25" y="1160" width="80" height="40" as="geometry" />
        </mxCell>
        <mxCell id="YLoG_cEiAJx4C-f8SDsn-102" value="Id" style="ellipse;whiteSpace=wrap;html=1;align=center;fontStyle=4;" parent="1" vertex="1">
          <mxGeometry x="613.75" y="1279.41" width="85" height="40" as="geometry" />
        </mxCell>
        <mxCell id="YLoG_cEiAJx4C-f8SDsn-103" value="Name" style="ellipse;whiteSpace=wrap;html=1;align=center;" parent="1" vertex="1">
          <mxGeometry x="661.25" y="1159.41" width="80" height="40" as="geometry" />
        </mxCell>
        <mxCell id="YLoG_cEiAJx4C-f8SDsn-104" value="StockQuantity" style="ellipse;whiteSpace=wrap;html=1;align=center;" parent="1" vertex="1">
          <mxGeometry x="576.25" y="1159.41" width="80" height="40" as="geometry" />
>>>>>>> Stashed changes
        </mxCell>
        <mxCell id="YLoG_cEiAJx4C-f8SDsn-106" style="edgeStyle=none;rounded=0;orthogonalLoop=1;jettySize=auto;html=1;exitX=0.5;exitY=0;exitDx=0;exitDy=0;entryX=0.5;entryY=1;entryDx=0;entryDy=0;" edge="1" parent="1" source="YLoG_cEiAJx4C-f8SDsn-105" target="YLoG_cEiAJx4C-f8SDsn-104">
          <mxGeometry relative="1" as="geometry" />
        </mxCell>
        <mxCell id="YLoG_cEiAJx4C-f8SDsn-107" style="edgeStyle=none;rounded=0;orthogonalLoop=1;jettySize=auto;html=1;exitX=0.5;exitY=0;exitDx=0;exitDy=0;entryX=0.5;entryY=1;entryDx=0;entryDy=0;" edge="1" parent="1" source="YLoG_cEiAJx4C-f8SDsn-105" target="YLoG_cEiAJx4C-f8SDsn-103">
          <mxGeometry relative="1" as="geometry" />
        </mxCell>
        <mxCell id="YLoG_cEiAJx4C-f8SDsn-109" style="edgeStyle=none;rounded=0;orthogonalLoop=1;jettySize=auto;html=1;exitX=0.5;exitY=1;exitDx=0;exitDy=0;entryX=0.5;entryY=0;entryDx=0;entryDy=0;" edge="1" parent="1" source="YLoG_cEiAJx4C-f8SDsn-105" target="YLoG_cEiAJx4C-f8SDsn-102">
          <mxGeometry relative="1" as="geometry" />
        </mxCell>
<<<<<<< Updated upstream
        <mxCell id="YLoG_cEiAJx4C-f8SDsn-105" value="Ingredients" style="whiteSpace=wrap;html=1;align=center;" vertex="1" parent="1">
          <mxGeometry x="330" y="700" width="100" height="40" as="geometry" />
=======
        <mxCell id="YLoG_cEiAJx4C-f8SDsn-105" value="Ingredients" style="whiteSpace=wrap;html=1;align=center;" parent="1" vertex="1">
          <mxGeometry x="606.25" y="1219.41" width="100" height="40" as="geometry" />
>>>>>>> Stashed changes
        </mxCell>
        <mxCell id="YLoG_cEiAJx4C-f8SDsn-108" style="edgeStyle=none;rounded=0;orthogonalLoop=1;jettySize=auto;html=1;exitX=0.5;exitY=1;exitDx=0;exitDy=0;" edge="1" parent="1" source="YLoG_cEiAJx4C-f8SDsn-102" target="YLoG_cEiAJx4C-f8SDsn-102">
          <mxGeometry relative="1" as="geometry" />
        </mxCell>
<<<<<<< Updated upstream
        <mxCell id="YLoG_cEiAJx4C-f8SDsn-120" style="edgeStyle=none;rounded=0;orthogonalLoop=1;jettySize=auto;html=1;exitX=0.75;exitY=0;exitDx=0;exitDy=0;entryX=0.5;entryY=1;entryDx=0;entryDy=0;" edge="1" parent="1" source="YLoG_cEiAJx4C-f8SDsn-110" target="YLoG_cEiAJx4C-f8SDsn-117">
          <mxGeometry relative="1" as="geometry" />
        </mxCell>
        <mxCell id="YLoG_cEiAJx4C-f8SDsn-121" style="edgeStyle=none;rounded=0;orthogonalLoop=1;jettySize=auto;html=1;exitX=0.25;exitY=0;exitDx=0;exitDy=0;entryX=0.5;entryY=1;entryDx=0;entryDy=0;" edge="1" parent="1" source="YLoG_cEiAJx4C-f8SDsn-110" target="YLoG_cEiAJx4C-f8SDsn-116">
          <mxGeometry relative="1" as="geometry" />
        </mxCell>
        <mxCell id="YLoG_cEiAJx4C-f8SDsn-122" style="edgeStyle=none;rounded=0;orthogonalLoop=1;jettySize=auto;html=1;exitX=0.5;exitY=1;exitDx=0;exitDy=0;entryX=0.5;entryY=0;entryDx=0;entryDy=0;" edge="1" parent="1" source="YLoG_cEiAJx4C-f8SDsn-110" target="YLoG_cEiAJx4C-f8SDsn-112">
          <mxGeometry relative="1" as="geometry" />
        </mxCell>
        <mxCell id="YLoG_cEiAJx4C-f8SDsn-110" value="Menus" style="whiteSpace=wrap;html=1;align=center;" vertex="1" parent="1">
          <mxGeometry x="440" y="500" width="100" height="40" as="geometry" />
=======
        <mxCell id="YLoG_cEiAJx4C-f8SDsn-120" style="edgeStyle=none;rounded=0;orthogonalLoop=1;jettySize=auto;html=1;exitX=1;exitY=0.25;exitDx=0;exitDy=0;entryX=0;entryY=1;entryDx=0;entryDy=0;" parent="1" source="YLoG_cEiAJx4C-f8SDsn-110" target="YLoG_cEiAJx4C-f8SDsn-117" edge="1">
          <mxGeometry relative="1" as="geometry" />
        </mxCell>
        <mxCell id="YLoG_cEiAJx4C-f8SDsn-121" style="edgeStyle=none;rounded=0;orthogonalLoop=1;jettySize=auto;html=1;exitX=1;exitY=0.5;exitDx=0;exitDy=0;entryX=0;entryY=0.5;entryDx=0;entryDy=0;" parent="1" source="YLoG_cEiAJx4C-f8SDsn-110" target="YLoG_cEiAJx4C-f8SDsn-116" edge="1">
          <mxGeometry relative="1" as="geometry" />
        </mxCell>
        <mxCell id="YLoG_cEiAJx4C-f8SDsn-122" style="edgeStyle=none;rounded=0;orthogonalLoop=1;jettySize=auto;html=1;exitX=1;exitY=0.75;exitDx=0;exitDy=0;entryX=0;entryY=0;entryDx=0;entryDy=0;" parent="1" source="YLoG_cEiAJx4C-f8SDsn-110" target="YLoG_cEiAJx4C-f8SDsn-112" edge="1">
          <mxGeometry relative="1" as="geometry" />
        </mxCell>
        <mxCell id="YLoG_cEiAJx4C-f8SDsn-110" value="Menus" style="whiteSpace=wrap;html=1;align=center;" parent="1" vertex="1">
          <mxGeometry x="725" y="1030" width="100" height="40" as="geometry" />
>>>>>>> Stashed changes
        </mxCell>
        <mxCell id="YLoG_cEiAJx4C-f8SDsn-123" style="edgeStyle=none;rounded=0;orthogonalLoop=1;jettySize=auto;html=1;exitX=0.5;exitY=1;exitDx=0;exitDy=0;entryX=0.5;entryY=0;entryDx=0;entryDy=0;" edge="1" parent="1" source="YLoG_cEiAJx4C-f8SDsn-111" target="YLoG_cEiAJx4C-f8SDsn-113">
          <mxGeometry relative="1" as="geometry" />
        </mxCell>
        <mxCell id="YLoG_cEiAJx4C-f8SDsn-124" style="edgeStyle=none;rounded=0;orthogonalLoop=1;jettySize=auto;html=1;exitX=0.75;exitY=0;exitDx=0;exitDy=0;entryX=0.5;entryY=1;entryDx=0;entryDy=0;" edge="1" parent="1" source="YLoG_cEiAJx4C-f8SDsn-111" target="YLoG_cEiAJx4C-f8SDsn-115">
          <mxGeometry relative="1" as="geometry" />
        </mxCell>
        <mxCell id="YLoG_cEiAJx4C-f8SDsn-125" style="edgeStyle=none;rounded=0;orthogonalLoop=1;jettySize=auto;html=1;exitX=0.25;exitY=0;exitDx=0;exitDy=0;entryX=0.5;entryY=1;entryDx=0;entryDy=0;" edge="1" parent="1" source="YLoG_cEiAJx4C-f8SDsn-111" target="YLoG_cEiAJx4C-f8SDsn-114">
          <mxGeometry relative="1" as="geometry" />
        </mxCell>
<<<<<<< Updated upstream
        <mxCell id="YLoG_cEiAJx4C-f8SDsn-111" value="FoodItems" style="whiteSpace=wrap;html=1;align=center;" vertex="1" parent="1">
          <mxGeometry x="270" y="360" width="100" height="40" as="geometry" />
        </mxCell>
        <mxCell id="YLoG_cEiAJx4C-f8SDsn-112" value="Id" style="ellipse;whiteSpace=wrap;html=1;align=center;fontStyle=4;" vertex="1" parent="1">
          <mxGeometry x="450" y="560" width="80" height="40" as="geometry" />
        </mxCell>
        <mxCell id="YLoG_cEiAJx4C-f8SDsn-113" value="Id" style="ellipse;whiteSpace=wrap;html=1;align=center;fontStyle=4;" vertex="1" parent="1">
          <mxGeometry x="280" y="420" width="80" height="40" as="geometry" />
        </mxCell>
        <mxCell id="YLoG_cEiAJx4C-f8SDsn-114" value="Name" style="ellipse;whiteSpace=wrap;html=1;align=center;" vertex="1" parent="1">
          <mxGeometry x="230" y="310" width="80" height="40" as="geometry" />
        </mxCell>
        <mxCell id="YLoG_cEiAJx4C-f8SDsn-115" value="Price" style="ellipse;whiteSpace=wrap;html=1;align=center;" vertex="1" parent="1">
          <mxGeometry x="330" y="310" width="80" height="40" as="geometry" />
        </mxCell>
        <mxCell id="YLoG_cEiAJx4C-f8SDsn-116" value="Price" style="ellipse;whiteSpace=wrap;html=1;align=center;" vertex="1" parent="1">
          <mxGeometry x="400" y="440" width="80" height="40" as="geometry" />
        </mxCell>
        <mxCell id="YLoG_cEiAJx4C-f8SDsn-117" value="Name" style="ellipse;whiteSpace=wrap;html=1;align=center;" vertex="1" parent="1">
          <mxGeometry x="500" y="440" width="80" height="40" as="geometry" />
=======
        <mxCell id="YLoG_cEiAJx4C-f8SDsn-111" value="FoodItems" style="whiteSpace=wrap;html=1;align=center;" parent="1" vertex="1">
          <mxGeometry x="467.5" y="877.5" width="100" height="40" as="geometry" />
        </mxCell>
        <mxCell id="YLoG_cEiAJx4C-f8SDsn-112" value="Id" style="ellipse;whiteSpace=wrap;html=1;align=center;fontStyle=4;" parent="1" vertex="1">
          <mxGeometry x="850" y="1060" width="80" height="40" as="geometry" />
        </mxCell>
        <mxCell id="YLoG_cEiAJx4C-f8SDsn-113" value="Id" style="ellipse;whiteSpace=wrap;html=1;align=center;fontStyle=4;" parent="1" vertex="1">
          <mxGeometry x="477.5" y="937.5" width="80" height="40" as="geometry" />
        </mxCell>
        <mxCell id="YLoG_cEiAJx4C-f8SDsn-114" value="Name" style="ellipse;whiteSpace=wrap;html=1;align=center;" parent="1" vertex="1">
          <mxGeometry x="427.5" y="827.5" width="80" height="40" as="geometry" />
        </mxCell>
        <mxCell id="YLoG_cEiAJx4C-f8SDsn-115" value="Price" style="ellipse;whiteSpace=wrap;html=1;align=center;" parent="1" vertex="1">
          <mxGeometry x="527.5" y="827.5" width="80" height="40" as="geometry" />
        </mxCell>
        <mxCell id="YLoG_cEiAJx4C-f8SDsn-116" value="Price" style="ellipse;whiteSpace=wrap;html=1;align=center;" parent="1" vertex="1">
          <mxGeometry x="930" y="1030" width="80" height="40" as="geometry" />
        </mxCell>
        <mxCell id="YLoG_cEiAJx4C-f8SDsn-117" value="Name" style="ellipse;whiteSpace=wrap;html=1;align=center;" parent="1" vertex="1">
          <mxGeometry x="845" y="1000" width="80" height="40" as="geometry" />
        </mxCell>
        <mxCell id="C3wcnBjOSxiOxjPT16v5-1" value="DO" style="rhombus;whiteSpace=wrap;html=1;" parent="1" vertex="1">
          <mxGeometry x="450" y="125" width="80" height="50" as="geometry" />
        </mxCell>
        <mxCell id="C3wcnBjOSxiOxjPT16v5-3" value="" style="endArrow=none;html=1;rounded=0;entryX=1;entryY=0.5;entryDx=0;entryDy=0;exitX=0;exitY=0.5;exitDx=0;exitDy=0;" parent="1" source="C3wcnBjOSxiOxjPT16v5-1" target="YLoG_cEiAJx4C-f8SDsn-1" edge="1">
          <mxGeometry relative="1" as="geometry">
            <mxPoint x="340" y="310" as="sourcePoint" />
            <mxPoint x="500" y="310" as="targetPoint" />
          </mxGeometry>
        </mxCell>
        <mxCell id="C3wcnBjOSxiOxjPT16v5-4" value="1" style="resizable=0;html=1;whiteSpace=wrap;align=right;verticalAlign=bottom;" parent="C3wcnBjOSxiOxjPT16v5-3" connectable="0" vertex="1">
          <mxGeometry x="1" relative="1" as="geometry">
            <mxPoint x="15" y="20" as="offset" />
          </mxGeometry>
        </mxCell>
        <mxCell id="C3wcnBjOSxiOxjPT16v5-5" value="" style="endArrow=none;html=1;rounded=0;entryX=0;entryY=0.5;entryDx=0;entryDy=0;exitX=1;exitY=0.5;exitDx=0;exitDy=0;" parent="1" source="C3wcnBjOSxiOxjPT16v5-1" target="YLoG_cEiAJx4C-f8SDsn-23" edge="1">
          <mxGeometry relative="1" as="geometry">
            <mxPoint x="340" y="310" as="sourcePoint" />
            <mxPoint x="500" y="310" as="targetPoint" />
          </mxGeometry>
        </mxCell>
        <mxCell id="C3wcnBjOSxiOxjPT16v5-6" value="N" style="resizable=0;html=1;whiteSpace=wrap;align=right;verticalAlign=bottom;" parent="C3wcnBjOSxiOxjPT16v5-5" connectable="0" vertex="1">
          <mxGeometry x="1" relative="1" as="geometry" />
        </mxCell>
        <mxCell id="C3wcnBjOSxiOxjPT16v5-7" value="HAVE" style="rhombus;whiteSpace=wrap;html=1;" parent="1" vertex="1">
          <mxGeometry x="735" y="200" width="80" height="50" as="geometry" />
        </mxCell>
        <mxCell id="C3wcnBjOSxiOxjPT16v5-8" value="" style="endArrow=none;html=1;rounded=0;entryX=0.5;entryY=1;entryDx=0;entryDy=0;exitX=0.5;exitY=0;exitDx=0;exitDy=0;" parent="1" source="C3wcnBjOSxiOxjPT16v5-7" target="YLoG_cEiAJx4C-f8SDsn-23" edge="1">
          <mxGeometry relative="1" as="geometry">
            <mxPoint x="485" y="229.5" as="sourcePoint" />
            <mxPoint x="595" y="229.5" as="targetPoint" />
          </mxGeometry>
        </mxCell>
        <mxCell id="C3wcnBjOSxiOxjPT16v5-9" value="N" style="resizable=0;html=1;whiteSpace=wrap;align=right;verticalAlign=bottom;" parent="C3wcnBjOSxiOxjPT16v5-8" connectable="0" vertex="1">
          <mxGeometry x="1" relative="1" as="geometry">
            <mxPoint y="21" as="offset" />
          </mxGeometry>
        </mxCell>
        <mxCell id="C3wcnBjOSxiOxjPT16v5-10" value="" style="endArrow=none;html=1;rounded=0;entryX=0.5;entryY=0;entryDx=0;entryDy=0;exitX=0.5;exitY=1;exitDx=0;exitDy=0;" parent="1" source="C3wcnBjOSxiOxjPT16v5-7" target="YLoG_cEiAJx4C-f8SDsn-34" edge="1">
          <mxGeometry relative="1" as="geometry">
            <mxPoint x="380" y="160" as="sourcePoint" />
            <mxPoint x="260" y="160" as="targetPoint" />
          </mxGeometry>
        </mxCell>
        <mxCell id="C3wcnBjOSxiOxjPT16v5-11" value="1" style="resizable=0;html=1;whiteSpace=wrap;align=right;verticalAlign=bottom;" parent="C3wcnBjOSxiOxjPT16v5-10" connectable="0" vertex="1">
          <mxGeometry x="1" relative="1" as="geometry" />
        </mxCell>
        <mxCell id="C3wcnBjOSxiOxjPT16v5-12" value="BELONGS" style="shape=rhombus;perimeter=rhombusPerimeter;whiteSpace=wrap;html=1;align=center;" parent="1" vertex="1">
          <mxGeometry x="735" y="370" width="80" height="50" as="geometry" />
        </mxCell>
        <mxCell id="C3wcnBjOSxiOxjPT16v5-13" value="" style="endArrow=none;html=1;rounded=0;exitX=0.5;exitY=1;exitDx=0;exitDy=0;entryX=0.5;entryY=0;entryDx=0;entryDy=0;" parent="1" source="C3wcnBjOSxiOxjPT16v5-12" target="YLoG_cEiAJx4C-f8SDsn-40" edge="1">
          <mxGeometry relative="1" as="geometry">
            <mxPoint x="560" y="450" as="sourcePoint" />
            <mxPoint x="800" y="430" as="targetPoint" />
          </mxGeometry>
        </mxCell>
        <mxCell id="C3wcnBjOSxiOxjPT16v5-14" value="N" style="resizable=0;html=1;whiteSpace=wrap;align=right;verticalAlign=bottom;" parent="C3wcnBjOSxiOxjPT16v5-13" connectable="0" vertex="1">
          <mxGeometry x="1" relative="1" as="geometry" />
        </mxCell>
        <mxCell id="C3wcnBjOSxiOxjPT16v5-15" value="" style="endArrow=none;html=1;rounded=0;exitX=0.5;exitY=0;exitDx=0;exitDy=0;entryX=0.5;entryY=1;entryDx=0;entryDy=0;" parent="1" source="C3wcnBjOSxiOxjPT16v5-12" target="YLoG_cEiAJx4C-f8SDsn-34" edge="1">
          <mxGeometry relative="1" as="geometry">
            <mxPoint x="590" y="380" as="sourcePoint" />
            <mxPoint x="674" y="350" as="targetPoint" />
          </mxGeometry>
        </mxCell>
        <mxCell id="C3wcnBjOSxiOxjPT16v5-16" value="1" style="resizable=0;html=1;whiteSpace=wrap;align=right;verticalAlign=bottom;" parent="C3wcnBjOSxiOxjPT16v5-15" connectable="0" vertex="1">
          <mxGeometry x="1" relative="1" as="geometry">
            <mxPoint x="9" y="20" as="offset" />
          </mxGeometry>
        </mxCell>
        <mxCell id="C3wcnBjOSxiOxjPT16v5-23" value="HAVE" style="rhombus;whiteSpace=wrap;html=1;" parent="1" vertex="1">
          <mxGeometry x="735" y="540" width="80" height="50" as="geometry" />
        </mxCell>
        <mxCell id="C3wcnBjOSxiOxjPT16v5-24" value="" style="endArrow=none;html=1;rounded=0;entryX=0.5;entryY=1;entryDx=0;entryDy=0;exitX=0.5;exitY=0;exitDx=0;exitDy=0;" parent="1" source="C3wcnBjOSxiOxjPT16v5-23" target="YLoG_cEiAJx4C-f8SDsn-40" edge="1">
          <mxGeometry relative="1" as="geometry">
            <mxPoint x="590" y="534" as="sourcePoint" />
            <mxPoint x="750" y="534" as="targetPoint" />
          </mxGeometry>
        </mxCell>
        <mxCell id="C3wcnBjOSxiOxjPT16v5-25" value="N" style="resizable=0;html=1;whiteSpace=wrap;align=right;verticalAlign=bottom;" parent="C3wcnBjOSxiOxjPT16v5-24" connectable="0" vertex="1">
          <mxGeometry x="1" relative="1" as="geometry">
            <mxPoint y="15" as="offset" />
          </mxGeometry>
        </mxCell>
        <mxCell id="C3wcnBjOSxiOxjPT16v5-26" value="" style="endArrow=none;html=1;rounded=0;entryX=0.5;entryY=0;entryDx=0;entryDy=0;exitX=0.5;exitY=1;exitDx=0;exitDy=0;" parent="1" source="C3wcnBjOSxiOxjPT16v5-23" target="YLoG_cEiAJx4C-f8SDsn-47" edge="1">
          <mxGeometry relative="1" as="geometry">
            <mxPoint x="600" y="679" as="sourcePoint" />
            <mxPoint x="760" y="679" as="targetPoint" />
          </mxGeometry>
        </mxCell>
        <mxCell id="C3wcnBjOSxiOxjPT16v5-27" value="1" style="resizable=0;html=1;whiteSpace=wrap;align=right;verticalAlign=bottom;" parent="C3wcnBjOSxiOxjPT16v5-26" connectable="0" vertex="1">
          <mxGeometry x="1" relative="1" as="geometry" />
        </mxCell>
        <mxCell id="C3wcnBjOSxiOxjPT16v5-28" value="HAVE" style="rhombus;whiteSpace=wrap;html=1;" parent="1" vertex="1">
          <mxGeometry x="665" y="740" width="80" height="50" as="geometry" />
        </mxCell>
        <mxCell id="C3wcnBjOSxiOxjPT16v5-29" value="" style="endArrow=none;html=1;rounded=0;entryX=0.5;entryY=0;entryDx=0;entryDy=0;exitX=0.5;exitY=1;exitDx=0;exitDy=0;" parent="1" source="C3wcnBjOSxiOxjPT16v5-28" target="YLoG_cEiAJx4C-f8SDsn-60" edge="1">
          <mxGeometry relative="1" as="geometry">
            <mxPoint x="340" y="730" as="sourcePoint" />
            <mxPoint x="500" y="730" as="targetPoint" />
          </mxGeometry>
        </mxCell>
        <mxCell id="C3wcnBjOSxiOxjPT16v5-30" value="N" style="resizable=0;html=1;whiteSpace=wrap;align=right;verticalAlign=bottom;" parent="C3wcnBjOSxiOxjPT16v5-29" connectable="0" vertex="1">
          <mxGeometry x="1" relative="1" as="geometry">
            <mxPoint x="8" as="offset" />
          </mxGeometry>
        </mxCell>
        <mxCell id="C3wcnBjOSxiOxjPT16v5-31" value="" style="endArrow=none;html=1;rounded=0;entryX=0.25;entryY=1;entryDx=0;entryDy=0;exitX=0.5;exitY=0;exitDx=0;exitDy=0;" parent="1" source="C3wcnBjOSxiOxjPT16v5-28" target="YLoG_cEiAJx4C-f8SDsn-47" edge="1">
          <mxGeometry relative="1" as="geometry">
            <mxPoint x="600" y="679" as="sourcePoint" />
            <mxPoint x="760" y="679" as="targetPoint" />
          </mxGeometry>
        </mxCell>
        <mxCell id="C3wcnBjOSxiOxjPT16v5-32" value="1" style="resizable=0;html=1;whiteSpace=wrap;align=right;verticalAlign=bottom;" parent="C3wcnBjOSxiOxjPT16v5-31" connectable="0" vertex="1">
          <mxGeometry x="1" relative="1" as="geometry">
            <mxPoint x="9" y="20" as="offset" />
          </mxGeometry>
        </mxCell>
        <mxCell id="C3wcnBjOSxiOxjPT16v5-33" value="" style="endArrow=none;html=1;rounded=0;entryX=1;entryY=0.75;entryDx=0;entryDy=0;exitX=0;exitY=0;exitDx=0;exitDy=0;" parent="1" source="C3wcnBjOSxiOxjPT16v5-35" target="YLoG_cEiAJx4C-f8SDsn-82" edge="1">
          <mxGeometry relative="1" as="geometry">
            <mxPoint x="490" y="580" as="sourcePoint" />
            <mxPoint x="310" y="510" as="targetPoint" />
          </mxGeometry>
        </mxCell>
        <mxCell id="C3wcnBjOSxiOxjPT16v5-34" value="N" style="resizable=0;html=1;whiteSpace=wrap;align=right;verticalAlign=bottom;" parent="C3wcnBjOSxiOxjPT16v5-33" connectable="0" vertex="1">
          <mxGeometry x="1" relative="1" as="geometry">
            <mxPoint x="13" y="10" as="offset" />
          </mxGeometry>
        </mxCell>
        <mxCell id="C3wcnBjOSxiOxjPT16v5-35" value="HAVE" style="rhombus;whiteSpace=wrap;html=1;" parent="1" vertex="1">
          <mxGeometry x="600" y="545" width="80" height="50" as="geometry" />
        </mxCell>
        <mxCell id="C3wcnBjOSxiOxjPT16v5-36" value="" style="endArrow=none;html=1;rounded=0;exitX=1;exitY=1;exitDx=0;exitDy=0;entryX=0;entryY=0.25;entryDx=0;entryDy=0;" parent="1" source="C3wcnBjOSxiOxjPT16v5-35" target="YLoG_cEiAJx4C-f8SDsn-47" edge="1">
          <mxGeometry relative="1" as="geometry">
            <mxPoint x="740" y="640" as="sourcePoint" />
            <mxPoint x="730" y="610" as="targetPoint" />
          </mxGeometry>
        </mxCell>
        <mxCell id="C3wcnBjOSxiOxjPT16v5-37" value="1" style="resizable=0;html=1;whiteSpace=wrap;align=right;verticalAlign=bottom;" parent="C3wcnBjOSxiOxjPT16v5-36" connectable="0" vertex="1">
          <mxGeometry x="1" relative="1" as="geometry">
            <mxPoint x="-2" y="-6" as="offset" />
          </mxGeometry>
        </mxCell>
        <mxCell id="C3wcnBjOSxiOxjPT16v5-38" value="HAVE" style="shape=rhombus;perimeter=rhombusPerimeter;whiteSpace=wrap;html=1;align=center;" parent="1" vertex="1">
          <mxGeometry x="745" y="940" width="60" height="35" as="geometry" />
        </mxCell>
        <mxCell id="C3wcnBjOSxiOxjPT16v5-39" value="" style="endArrow=none;html=1;rounded=0;exitX=0.5;exitY=0;exitDx=0;exitDy=0;entryX=0.5;entryY=1;entryDx=0;entryDy=0;" parent="1" source="C3wcnBjOSxiOxjPT16v5-38" target="YLoG_cEiAJx4C-f8SDsn-60" edge="1">
          <mxGeometry relative="1" as="geometry">
            <mxPoint x="570" y="940" as="sourcePoint" />
            <mxPoint x="730" y="940" as="targetPoint" />
          </mxGeometry>
        </mxCell>
        <mxCell id="C3wcnBjOSxiOxjPT16v5-40" value="N" style="resizable=0;html=1;whiteSpace=wrap;align=right;verticalAlign=bottom;" parent="C3wcnBjOSxiOxjPT16v5-39" connectable="0" vertex="1">
          <mxGeometry x="1" relative="1" as="geometry">
            <mxPoint y="15" as="offset" />
          </mxGeometry>
        </mxCell>
        <mxCell id="C3wcnBjOSxiOxjPT16v5-41" value="" style="endArrow=none;html=1;rounded=0;entryX=0.5;entryY=0;entryDx=0;entryDy=0;exitX=0.5;exitY=1;exitDx=0;exitDy=0;" parent="1" source="C3wcnBjOSxiOxjPT16v5-38" target="YLoG_cEiAJx4C-f8SDsn-110" edge="1">
          <mxGeometry relative="1" as="geometry">
            <mxPoint x="570" y="940" as="sourcePoint" />
            <mxPoint x="730" y="940" as="targetPoint" />
          </mxGeometry>
        </mxCell>
        <mxCell id="C3wcnBjOSxiOxjPT16v5-42" value="N" style="resizable=0;html=1;whiteSpace=wrap;align=right;verticalAlign=bottom;" parent="C3wcnBjOSxiOxjPT16v5-41" connectable="0" vertex="1">
          <mxGeometry x="1" relative="1" as="geometry" />
        </mxCell>
        <mxCell id="C3wcnBjOSxiOxjPT16v5-43" value="HAVE" style="shape=rhombus;perimeter=rhombusPerimeter;whiteSpace=wrap;html=1;align=center;" parent="1" vertex="1">
          <mxGeometry x="620" y="880" width="60" height="35" as="geometry" />
        </mxCell>
        <mxCell id="C3wcnBjOSxiOxjPT16v5-44" value="" style="endArrow=none;html=1;rounded=0;exitX=0;exitY=0.5;exitDx=0;exitDy=0;entryX=1;entryY=0.5;entryDx=0;entryDy=0;" parent="1" source="C3wcnBjOSxiOxjPT16v5-43" target="YLoG_cEiAJx4C-f8SDsn-111" edge="1">
          <mxGeometry relative="1" as="geometry">
            <mxPoint x="675" y="893" as="sourcePoint" />
            <mxPoint x="525" y="915" as="targetPoint" />
          </mxGeometry>
        </mxCell>
        <mxCell id="C3wcnBjOSxiOxjPT16v5-45" value="N" style="resizable=0;html=1;whiteSpace=wrap;align=right;verticalAlign=bottom;" parent="C3wcnBjOSxiOxjPT16v5-44" connectable="0" vertex="1">
          <mxGeometry x="1" relative="1" as="geometry" />
        </mxCell>
        <mxCell id="C3wcnBjOSxiOxjPT16v5-46" value="" style="endArrow=none;html=1;rounded=0;exitX=1;exitY=0.5;exitDx=0;exitDy=0;entryX=0;entryY=0.5;entryDx=0;entryDy=0;" parent="1" source="C3wcnBjOSxiOxjPT16v5-43" target="YLoG_cEiAJx4C-f8SDsn-60" edge="1">
          <mxGeometry relative="1" as="geometry">
            <mxPoint x="960" y="888" as="sourcePoint" />
            <mxPoint x="810" y="910" as="targetPoint" />
          </mxGeometry>
        </mxCell>
        <mxCell id="C3wcnBjOSxiOxjPT16v5-47" value="N" style="resizable=0;html=1;whiteSpace=wrap;align=right;verticalAlign=bottom;" parent="C3wcnBjOSxiOxjPT16v5-46" connectable="0" vertex="1">
          <mxGeometry x="1" relative="1" as="geometry" />
        </mxCell>
        <mxCell id="C3wcnBjOSxiOxjPT16v5-49" value="" style="group" parent="1" vertex="1" connectable="0">
          <mxGeometry x="475" y="395" width="80" height="50" as="geometry" />
        </mxCell>
        <mxCell id="C3wcnBjOSxiOxjPT16v5-18" value="HAVE" style="rhombus;whiteSpace=wrap;html=1;" parent="1" vertex="1">
          <mxGeometry x="620" y="380" width="80" height="50" as="geometry" />
        </mxCell>
        <mxCell id="C3wcnBjOSxiOxjPT16v5-19" value="" style="endArrow=none;html=1;rounded=0;entryX=0;entryY=0.5;entryDx=0;entryDy=0;exitX=1;exitY=0;exitDx=0;exitDy=0;" parent="1" source="C3wcnBjOSxiOxjPT16v5-18" target="YLoG_cEiAJx4C-f8SDsn-34" edge="1">
          <mxGeometry relative="1" as="geometry">
            <mxPoint x="350" y="244.5" as="sourcePoint" />
            <mxPoint x="510" y="244.5" as="targetPoint" />
          </mxGeometry>
        </mxCell>
        <mxCell id="C3wcnBjOSxiOxjPT16v5-20" value="1" style="resizable=0;html=1;whiteSpace=wrap;align=right;verticalAlign=bottom;" parent="C3wcnBjOSxiOxjPT16v5-19" connectable="0" vertex="1">
          <mxGeometry x="1" relative="1" as="geometry" />
        </mxCell>
        <mxCell id="C3wcnBjOSxiOxjPT16v5-21" value="" style="endArrow=none;html=1;rounded=0;entryX=1;entryY=0.25;entryDx=0;entryDy=0;exitX=0;exitY=1;exitDx=0;exitDy=0;" parent="1" source="C3wcnBjOSxiOxjPT16v5-18" target="YLoG_cEiAJx4C-f8SDsn-82" edge="1">
          <mxGeometry relative="1" as="geometry">
            <mxPoint x="230" y="465" as="sourcePoint" />
            <mxPoint x="390" y="465" as="targetPoint" />
          </mxGeometry>
        </mxCell>
        <mxCell id="C3wcnBjOSxiOxjPT16v5-22" value="N" style="resizable=0;html=1;whiteSpace=wrap;align=right;verticalAlign=bottom;" parent="C3wcnBjOSxiOxjPT16v5-21" connectable="0" vertex="1">
          <mxGeometry x="1" relative="1" as="geometry">
            <mxPoint x="13" y="10" as="offset" />
          </mxGeometry>
        </mxCell>
        <mxCell id="C3wcnBjOSxiOxjPT16v5-50" value="HAVE" style="rhombus;whiteSpace=wrap;html=1;" parent="1" vertex="1">
          <mxGeometry x="387.5" y="520" width="80" height="50" as="geometry" />
        </mxCell>
        <mxCell id="C3wcnBjOSxiOxjPT16v5-53" value="" style="endArrow=none;html=1;rounded=0;entryX=0.75;entryY=0;entryDx=0;entryDy=0;exitX=0;exitY=1;exitDx=0;exitDy=0;" parent="1" source="C3wcnBjOSxiOxjPT16v5-50" target="YLoG_cEiAJx4C-f8SDsn-92" edge="1">
          <mxGeometry relative="1" as="geometry">
            <mxPoint x="347.5" y="607.5" as="sourcePoint" />
            <mxPoint x="587.5" y="485" as="targetPoint" />
          </mxGeometry>
        </mxCell>
        <mxCell id="C3wcnBjOSxiOxjPT16v5-54" value="N" style="resizable=0;html=1;whiteSpace=wrap;align=right;verticalAlign=bottom;" parent="C3wcnBjOSxiOxjPT16v5-53" connectable="0" vertex="1">
          <mxGeometry x="1" relative="1" as="geometry" />
        </mxCell>
        <mxCell id="C3wcnBjOSxiOxjPT16v5-51" value="" style="endArrow=none;html=1;rounded=0;entryX=0;entryY=0.5;entryDx=0;entryDy=0;exitX=1;exitY=0;exitDx=0;exitDy=0;" parent="1" source="C3wcnBjOSxiOxjPT16v5-50" target="YLoG_cEiAJx4C-f8SDsn-82" edge="1">
          <mxGeometry relative="1" as="geometry">
            <mxPoint x="360" y="254.5" as="sourcePoint" />
            <mxPoint x="520" y="254.5" as="targetPoint" />
          </mxGeometry>
        </mxCell>
        <mxCell id="C3wcnBjOSxiOxjPT16v5-52" value="1" style="resizable=0;html=1;whiteSpace=wrap;align=right;verticalAlign=bottom;" parent="C3wcnBjOSxiOxjPT16v5-51" connectable="0" vertex="1">
          <mxGeometry x="1" relative="1" as="geometry" />
        </mxCell>
        <mxCell id="C3wcnBjOSxiOxjPT16v5-55" value="HAVE" style="shape=rhombus;perimeter=rhombusPerimeter;whiteSpace=wrap;html=1;align=center;" parent="1" vertex="1">
          <mxGeometry x="300" y="1020" width="120" height="60" as="geometry" />
        </mxCell>
        <mxCell id="C3wcnBjOSxiOxjPT16v5-56" value="" style="endArrow=none;html=1;rounded=0;entryX=0.5;entryY=1;entryDx=0;entryDy=0;exitX=0.5;exitY=0;exitDx=0;exitDy=0;" parent="1" source="C3wcnBjOSxiOxjPT16v5-55" target="YLoG_cEiAJx4C-f8SDsn-92" edge="1">
          <mxGeometry relative="1" as="geometry">
            <mxPoint x="597.5" y="742.5" as="sourcePoint" />
            <mxPoint x="397.5" y="677.5" as="targetPoint" />
          </mxGeometry>
        </mxCell>
        <mxCell id="C3wcnBjOSxiOxjPT16v5-57" value="N" style="resizable=0;html=1;whiteSpace=wrap;align=right;verticalAlign=bottom;" parent="C3wcnBjOSxiOxjPT16v5-56" connectable="0" vertex="1">
          <mxGeometry x="1" relative="1" as="geometry">
            <mxPoint y="20" as="offset" />
          </mxGeometry>
        </mxCell>
        <mxCell id="C3wcnBjOSxiOxjPT16v5-58" value="" style="endArrow=none;html=1;rounded=0;entryX=0;entryY=0.5;entryDx=0;entryDy=0;exitX=1;exitY=0.5;exitDx=0;exitDy=0;" parent="1" source="C3wcnBjOSxiOxjPT16v5-55" target="YLoG_cEiAJx4C-f8SDsn-110" edge="1">
          <mxGeometry relative="1" as="geometry">
            <mxPoint x="290" y="790" as="sourcePoint" />
            <mxPoint x="450" y="790" as="targetPoint" />
            <Array as="points" />
          </mxGeometry>
        </mxCell>
        <mxCell id="C3wcnBjOSxiOxjPT16v5-59" value="1" style="resizable=0;html=1;whiteSpace=wrap;align=right;verticalAlign=bottom;" parent="C3wcnBjOSxiOxjPT16v5-58" connectable="0" vertex="1">
          <mxGeometry x="1" relative="1" as="geometry" />
        </mxCell>
        <mxCell id="C3wcnBjOSxiOxjPT16v5-60" value="HAVE" style="shape=rhombus;perimeter=rhombusPerimeter;whiteSpace=wrap;html=1;align=center;" parent="1" vertex="1">
          <mxGeometry x="467.5" y="780" width="70" height="40" as="geometry" />
        </mxCell>
        <mxCell id="C3wcnBjOSxiOxjPT16v5-62" value="" style="endArrow=none;html=1;rounded=0;entryX=0.75;entryY=1;entryDx=0;entryDy=0;exitX=0;exitY=0;exitDx=0;exitDy=0;" parent="1" source="C3wcnBjOSxiOxjPT16v5-60" target="YLoG_cEiAJx4C-f8SDsn-92" edge="1">
          <mxGeometry relative="1" as="geometry">
            <mxPoint x="508" y="800" as="sourcePoint" />
            <mxPoint x="343" y="675" as="targetPoint" />
          </mxGeometry>
        </mxCell>
        <mxCell id="C3wcnBjOSxiOxjPT16v5-63" value="N" style="resizable=0;html=1;whiteSpace=wrap;align=right;verticalAlign=bottom;" parent="C3wcnBjOSxiOxjPT16v5-62" connectable="0" vertex="1">
          <mxGeometry x="1" relative="1" as="geometry">
            <mxPoint x="5" y="20" as="offset" />
          </mxGeometry>
        </mxCell>
        <mxCell id="C3wcnBjOSxiOxjPT16v5-64" value="" style="endArrow=none;html=1;rounded=0;entryX=0.5;entryY=0;entryDx=0;entryDy=0;exitX=1;exitY=1;exitDx=0;exitDy=0;" parent="1" source="C3wcnBjOSxiOxjPT16v5-60" target="YLoG_cEiAJx4C-f8SDsn-111" edge="1">
          <mxGeometry relative="1" as="geometry">
            <mxPoint x="220" y="860" as="sourcePoint" />
            <mxPoint x="380" y="860" as="targetPoint" />
          </mxGeometry>
        </mxCell>
        <mxCell id="C3wcnBjOSxiOxjPT16v5-65" value="1" style="resizable=0;html=1;whiteSpace=wrap;align=right;verticalAlign=bottom;" parent="C3wcnBjOSxiOxjPT16v5-64" connectable="0" vertex="1">
          <mxGeometry x="1" relative="1" as="geometry" />
        </mxCell>
        <mxCell id="C3wcnBjOSxiOxjPT16v5-67" value="HAVE" style="rhombus;whiteSpace=wrap;html=1;" parent="1" vertex="1">
          <mxGeometry x="487.5" y="690" width="80" height="50" as="geometry" />
        </mxCell>
        <mxCell id="C3wcnBjOSxiOxjPT16v5-68" value="" style="endArrow=none;html=1;rounded=0;entryX=1;entryY=0.25;entryDx=0;entryDy=0;exitX=0;exitY=1;exitDx=0;exitDy=0;" parent="1" source="C3wcnBjOSxiOxjPT16v5-67" target="YLoG_cEiAJx4C-f8SDsn-75" edge="1">
          <mxGeometry relative="1" as="geometry">
            <mxPoint x="540" y="720" as="sourcePoint" />
            <mxPoint x="700" y="720" as="targetPoint" />
          </mxGeometry>
        </mxCell>
        <mxCell id="C3wcnBjOSxiOxjPT16v5-69" value="N" style="resizable=0;html=1;whiteSpace=wrap;align=right;verticalAlign=bottom;" parent="C3wcnBjOSxiOxjPT16v5-68" connectable="0" vertex="1">
          <mxGeometry x="1" relative="1" as="geometry">
            <mxPoint x="15" as="offset" />
          </mxGeometry>
        </mxCell>
        <mxCell id="C3wcnBjOSxiOxjPT16v5-70" value="" style="endArrow=none;html=1;rounded=0;exitX=1;exitY=0;exitDx=0;exitDy=0;entryX=0;entryY=0.75;entryDx=0;entryDy=0;" parent="1" source="C3wcnBjOSxiOxjPT16v5-67" target="YLoG_cEiAJx4C-f8SDsn-47" edge="1">
          <mxGeometry relative="1" as="geometry">
            <mxPoint x="540" y="720" as="sourcePoint" />
            <mxPoint x="720" y="670" as="targetPoint" />
          </mxGeometry>
        </mxCell>
        <mxCell id="C3wcnBjOSxiOxjPT16v5-71" value="1" style="resizable=0;html=1;whiteSpace=wrap;align=right;verticalAlign=bottom;" parent="C3wcnBjOSxiOxjPT16v5-70" connectable="0" vertex="1">
          <mxGeometry x="1" relative="1" as="geometry">
            <mxPoint x="-3" y="18" as="offset" />
          </mxGeometry>
        </mxCell>
        <mxCell id="C3wcnBjOSxiOxjPT16v5-72" value="DO" style="shape=rhombus;perimeter=rhombusPerimeter;whiteSpace=wrap;html=1;align=center;" parent="1" vertex="1">
          <mxGeometry x="170" y="260" width="60" height="40" as="geometry" />
        </mxCell>
        <mxCell id="C3wcnBjOSxiOxjPT16v5-73" value="" style="endArrow=none;html=1;rounded=0;entryX=0.5;entryY=0;entryDx=0;entryDy=0;exitX=0.5;exitY=1;exitDx=0;exitDy=0;" parent="1" source="C3wcnBjOSxiOxjPT16v5-72" target="YLoG_cEiAJx4C-f8SDsn-75" edge="1">
          <mxGeometry relative="1" as="geometry">
            <mxPoint x="503" y="708" as="sourcePoint" />
            <mxPoint x="290" y="855" as="targetPoint" />
          </mxGeometry>
        </mxCell>
        <mxCell id="C3wcnBjOSxiOxjPT16v5-74" value="N" style="resizable=0;html=1;whiteSpace=wrap;align=right;verticalAlign=bottom;" parent="C3wcnBjOSxiOxjPT16v5-73" connectable="0" vertex="1">
          <mxGeometry x="1" relative="1" as="geometry" />
        </mxCell>
        <mxCell id="C3wcnBjOSxiOxjPT16v5-75" value="" style="endArrow=none;html=1;rounded=0;entryX=0.5;entryY=1;entryDx=0;entryDy=0;exitX=0.5;exitY=0;exitDx=0;exitDy=0;" parent="1" source="C3wcnBjOSxiOxjPT16v5-72" target="YLoG_cEiAJx4C-f8SDsn-1" edge="1">
          <mxGeometry relative="1" as="geometry">
            <mxPoint x="380" y="160" as="sourcePoint" />
            <mxPoint x="260" y="160" as="targetPoint" />
            <Array as="points" />
          </mxGeometry>
        </mxCell>
        <mxCell id="C3wcnBjOSxiOxjPT16v5-76" value="1" style="resizable=0;html=1;whiteSpace=wrap;align=right;verticalAlign=bottom;" parent="C3wcnBjOSxiOxjPT16v5-75" connectable="0" vertex="1">
          <mxGeometry x="1" relative="1" as="geometry">
            <mxPoint x="10" y="21" as="offset" />
          </mxGeometry>
        </mxCell>
        <mxCell id="C3wcnBjOSxiOxjPT16v5-77" value="" style="endArrow=none;html=1;rounded=0;entryX=0.75;entryY=0;entryDx=0;entryDy=0;exitX=0;exitY=1;exitDx=0;exitDy=0;" parent="1" source="C3wcnBjOSxiOxjPT16v5-79" target="YLoG_cEiAJx4C-f8SDsn-75" edge="1">
          <mxGeometry relative="1" as="geometry">
            <mxPoint x="210" y="750" as="sourcePoint" />
            <mxPoint x="265" y="855" as="targetPoint" />
          </mxGeometry>
        </mxCell>
        <mxCell id="C3wcnBjOSxiOxjPT16v5-78" value="N" style="resizable=0;html=1;whiteSpace=wrap;align=right;verticalAlign=bottom;" parent="C3wcnBjOSxiOxjPT16v5-77" connectable="0" vertex="1">
          <mxGeometry x="1" relative="1" as="geometry" />
        </mxCell>
        <mxCell id="C3wcnBjOSxiOxjPT16v5-79" value="ok" style="shape=rhombus;perimeter=rhombusPerimeter;whiteSpace=wrap;html=1;align=center;" parent="1" vertex="1">
          <mxGeometry x="230" y="675" width="70" height="30" as="geometry" />
        </mxCell>
        <mxCell id="C3wcnBjOSxiOxjPT16v5-80" value="" style="endArrow=none;html=1;rounded=0;entryX=0;entryY=0.5;entryDx=0;entryDy=0;exitX=1;exitY=0;exitDx=0;exitDy=0;" parent="1" source="C3wcnBjOSxiOxjPT16v5-79" target="YLoG_cEiAJx4C-f8SDsn-92" edge="1">
          <mxGeometry relative="1" as="geometry">
            <mxPoint x="210" y="583" as="sourcePoint" />
            <mxPoint x="260" y="530" as="targetPoint" />
          </mxGeometry>
        </mxCell>
        <mxCell id="C3wcnBjOSxiOxjPT16v5-81" value="1" style="resizable=0;html=1;whiteSpace=wrap;align=right;verticalAlign=bottom;" parent="C3wcnBjOSxiOxjPT16v5-80" connectable="0" vertex="1">
          <mxGeometry x="1" relative="1" as="geometry" />
        </mxCell>
        <mxCell id="C3wcnBjOSxiOxjPT16v5-82" value="HAVE" style="shape=rhombus;perimeter=rhombusPerimeter;whiteSpace=wrap;html=1;align=center;" parent="1" vertex="1">
          <mxGeometry x="497.5" y="1222.5" width="60" height="35" as="geometry" />
        </mxCell>
        <mxCell id="C3wcnBjOSxiOxjPT16v5-83" value="" style="endArrow=none;html=1;rounded=0;entryX=0;entryY=0.5;entryDx=0;entryDy=0;exitX=1;exitY=0.5;exitDx=0;exitDy=0;" parent="1" source="C3wcnBjOSxiOxjPT16v5-82" target="YLoG_cEiAJx4C-f8SDsn-105" edge="1">
          <mxGeometry relative="1" as="geometry">
            <mxPoint x="641.25" y="1090" as="sourcePoint" />
            <mxPoint x="801.25" y="1090" as="targetPoint" />
          </mxGeometry>
        </mxCell>
        <mxCell id="C3wcnBjOSxiOxjPT16v5-84" value="1" style="resizable=0;html=1;whiteSpace=wrap;align=right;verticalAlign=bottom;" parent="C3wcnBjOSxiOxjPT16v5-83" connectable="0" vertex="1">
          <mxGeometry x="1" relative="1" as="geometry" />
        </mxCell>
        <mxCell id="C3wcnBjOSxiOxjPT16v5-85" value="" style="endArrow=none;html=1;rounded=0;entryX=1;entryY=0.5;entryDx=0;entryDy=0;exitX=0;exitY=0.5;exitDx=0;exitDy=0;" parent="1" source="C3wcnBjOSxiOxjPT16v5-82" target="YLoG_cEiAJx4C-f8SDsn-97" edge="1">
          <mxGeometry relative="1" as="geometry">
            <mxPoint x="641.25" y="1090" as="sourcePoint" />
            <mxPoint x="801.25" y="1090" as="targetPoint" />
          </mxGeometry>
        </mxCell>
        <mxCell id="C3wcnBjOSxiOxjPT16v5-86" value="N" style="resizable=0;html=1;whiteSpace=wrap;align=right;verticalAlign=bottom;" parent="C3wcnBjOSxiOxjPT16v5-85" connectable="0" vertex="1">
          <mxGeometry x="1" relative="1" as="geometry" />
>>>>>>> Stashed changes
        </mxCell>
        <mxCell id="4g0HYTxsyAkhsIBBy0Wa-4" value="SUBSCRIBE" style="shape=rhombus;perimeter=rhombusPerimeter;whiteSpace=wrap;html=1;align=center;" vertex="1" parent="1">
          <mxGeometry x="910" y="760" width="90" height="50" as="geometry" />
        </mxCell>
      </root>
    </mxGraphModel>
  </diagram>
</mxfile>
